<svg width="300" height="300" viewBox="0 0 300 300" fill="none" xmlns="http://www.w3.org/2000/svg">
<path d="M122.75 41.889C115.18 34.3434 108.19 26.4382 97.1619 23.0292C74.2718 15.9497 47.1062 20.2579 28.647 36.3872C3.07558 58.7295 -2.93305 96.2201 1.18716 126.688C5.86327 161.212 20.2431 194.541 44.2286 220.35C70.4541 248.586 107.233 266.947 146.122 276.087C167.124 280.992 189.172 283.444 210.835 280.174C232.499 276.904 253.812 267.699 268.755 252.167C289.52 230.609 295.676 199.683 293.567 171.152C292.087 151.156 286.561 130.727 272.565 116.077C246.47 88.7727 203.478 86.729 169.511 71.9322C155.613 65.8745 142.345 58.427 130.679 49.1157C127.907 46.8528 125.259 44.4403 122.75 41.889Z" fill="#2D93D0"/>
<path opacity="0.7" d="M122.75 41.889C115.18 34.3434 108.19 26.4382 97.1619 23.0292C74.2718 15.9497 47.1062 20.2579 28.647 36.3872C3.07558 58.7295 -2.93305 96.2201 1.18716 126.688C5.86327 161.212 20.2431 194.541 44.2286 220.35C70.4541 248.586 107.233 266.947 146.122 276.087C167.124 280.992 189.172 283.444 210.835 280.174C232.499 276.904 253.812 267.699 268.755 252.167C289.52 230.609 295.676 199.683 293.567 171.152C292.087 151.156 286.561 130.727 272.565 116.077C246.47 88.7727 203.478 86.729 169.511 71.9322C155.613 65.8745 142.345 58.427 130.679 49.1157C127.907 46.8528 125.259 44.4403 122.75 41.889Z" fill="white"/>
<path d="M266.319 86.3441L268.543 81.5699C268.543 81.5699 268.543 81.4309 268.543 81.1939C268.543 81.1939 268.273 73.1742 267.922 70.689C267.66 68.8251 266.859 68.5635 266.467 68.5553C265.916 68.0934 265.299 67.7185 264.635 67.4435C262.827 66.3431 260.948 65.3627 259.011 64.5087C257.09 63.5113 255.455 62.9391 254.768 64.0263C254.477 64.4848 254.222 64.9659 254.008 65.4651C253.951 65.6041 253.902 65.7349 253.853 65.8739V65.9556C253.717 66.3558 253.614 66.7657 253.542 67.1819L250.762 69.2011L249.945 69.6262L251.58 78.1691L256.403 83.7935C256.403 83.7935 256.403 84.0224 256.305 84.3821C255.7 87.0582 254.448 89.5451 252.659 91.6252C251.979 92.2679 251.337 92.9504 250.738 93.6689C250.525 93.8733 250.321 94.0777 250.092 94.2739C246.601 97.3232 245.261 99.6612 244.68 101.427V101.541C242.252 99.2341 239.674 97.0903 236.963 95.1241C236.374 94.6663 230.93 89.9084 227.055 86.2215L224.087 81.3656C225.044 83.1232 223.327 79.8859 223.172 79.5507C221.439 75.6921 220.719 71.4329 218.708 67.6887C215.716 61.9662 208.743 57.6253 201.925 56.7342L205.195 49.3767L201.99 48.0932C202.084 48.1686 202.189 48.2293 202.301 48.2731C203.02 48.5347 204.418 49.0415 206.11 49.5811C217.392 53.8975 220.548 51.2161 220.825 51.0035C221.247 50.7561 221.591 50.3946 221.816 49.9608C222.042 49.527 222.14 49.0384 222.101 48.551L221.12 34.3183C221.107 34.1425 221.131 33.9661 221.19 33.8C221.249 33.634 221.342 33.482 221.463 33.3537L223.916 30.6477C224.116 30.4271 224.234 30.1448 224.252 29.8475C224.27 29.5502 224.186 29.2557 224.014 29.0127L220.67 24.3121C220.483 24.0547 220.399 23.7372 220.433 23.421L220.809 19.8894C220.841 19.6357 220.793 19.3783 220.67 19.1537L216.084 10.3001C216.986 9.84186 217.763 9.17137 218.348 8.3463C220.858 4.25879 220.801 1.73271 219.043 0.776236C217.286 -0.180241 213.926 5.68125 205.473 3.8337C201.238 2.96714 192.327 11.3057 189.057 17.8947L192.532 9.89138C189.025 14.5184 187.071 15.9327 187.798 18.0664C187.725 18.1154 187.594 18.1972 187.431 18.3198C184.414 20.7151 184.161 23.1186 184.161 23.1186C183.343 25.9798 184.471 30.2635 189.303 35.8552L180.743 47.3003C180.092 46.8732 179.356 46.5941 178.585 46.4828C175.078 45.9105 169.96 47.7254 168.407 48.3221C167.524 48.0932 166.674 47.8889 165.865 47.7172C163.499 46.8922 161.013 46.4614 158.507 46.4419C155.903 46.1732 153.272 46.3084 150.708 46.8425C149.231 47.2485 147.79 47.7763 146.4 48.4202C145.129 48.9133 143.908 49.5264 142.754 50.2514C141.545 50.9112 140.386 51.6599 139.288 52.4914C135.931 54.8559 132.906 57.6605 130.295 60.8299L127.614 64.0263C126.633 65.0564 125.66 66.0919 124.695 67.1329C120.337 71.593 115.674 75.745 110.741 79.5589C105.993 82.4574 100.901 84.7505 95.5842 86.385C91.9054 87.5622 88.055 88.5759 84.2127 89.4915C80.1252 90.3744 75.956 91.1265 71.7949 91.944C69.6694 92.3037 67.503 92.7615 65.402 93.2684C63.1212 93.7671 60.8485 94.3066 58.5922 94.9034C55.9049 95.4843 53.2714 96.2911 50.7197 97.315C49.9839 97.5766 49.2482 97.8546 48.5206 98.1325C49.0275 98.2388 49.5261 98.3614 50.0166 98.5086C52.8817 99.6966 55.5076 101.395 57.7666 103.52C60.3169 106.604 61.8807 110.384 62.2546 114.368C62.1892 117.883 61.0202 121.897 60.121 125.813C58.862 130.007 57.8401 133.653 59.4833 136.858C59.86 137.841 60.4142 138.747 61.1183 139.531C62.078 140.691 63.1952 141.712 64.4374 142.564C66.7182 144.346 69.3424 146.095 71.3698 148.172C72.8623 150.51 74.1532 152.972 75.2284 155.529C75.7673 157.288 76.4622 158.995 77.3049 160.631C77.6646 161.448 78.0406 162.266 78.4657 163.042C78.6851 163.493 78.9422 163.926 79.2342 164.334C81.7559 168.238 85.2529 171.417 89.3794 173.555C93.0899 175.898 97.3281 177.276 101.707 177.561C101.42 179.034 101.21 180.521 101.078 182.016C98.1549 182.833 95.3142 183.92 92.5921 185.262C87.401 187.428 81.0163 190.543 76.9533 194.156C73.748 197.034 71.024 200.407 68.8846 204.146C66.3811 208.414 64.4073 212.971 63.0067 217.717C62.3854 219.589 61.8214 221.444 61.2736 223.243L61.2246 223.129C61.2246 223.341 61.151 223.554 61.1183 223.766C60.448 225.998 59.8021 228.148 59.1318 230.143C56.4667 236.298 52.0522 242.405 49.894 245.626C48.7659 247.073 47.5887 248.487 46.3788 249.885C43.7628 252.771 40.4519 256.156 37.9094 259.139C37.0928 260.019 36.344 260.959 35.6695 261.952C35.1244 262.675 34.6559 263.453 34.2716 264.273C32.3341 268.786 36.6096 271.925 39.6262 275.776C39.6262 275.776 39.6752 275.857 39.7079 275.898C40.6778 277.908 41.2918 280.071 41.5228 282.291C41.4418 284.298 41.6259 286.308 42.0705 288.267C42.5834 289.817 43.4642 291.219 44.6375 292.355C46.1079 294.028 47.8764 295.414 49.8531 296.442C50.8296 297.035 51.8488 297.554 52.9024 297.995C55.9599 299.213 66.056 299.14 68.3123 295.224C68.4506 294.983 68.5761 294.734 68.6884 294.48C68.9711 294.002 69.1364 293.464 69.1707 292.91C69.2743 292.157 69.1896 291.389 68.9243 290.676C68.659 289.962 68.2212 289.326 67.6502 288.823C67.5848 288.905 67.9281 289.117 67.8627 289.207C64.2821 283.861 54.6764 277.664 54.7827 272.228C54.938 261.886 61.2001 254.741 68.345 248.046C75.2938 241.506 83.7877 240.41 90.2459 233.527C94.4152 229.088 98.9768 224.535 101.805 215.264C118.638 210.13 122.823 196.282 122.823 196.282C124.556 195.579 125.979 194.9 127.581 194.189C132.192 201.162 135.495 205.757 135.977 205.454L173.059 180.512C173.876 181.485 181.234 190.159 188.322 192.472L188.526 192.546L195.973 196.282C194.698 200.811 188.42 202.111 188.42 202.111V202.184L187.856 202.299C186.531 202.25 179.133 202.299 172.74 209.223C169.707 212.166 165.709 217.504 162.734 221.665C160.281 225.082 158.597 227.559 158.597 227.559C157.486 227.824 156.393 228.162 155.327 228.573C148.436 231.066 147.839 234.018 148.231 235.718C148.238 235.993 148.268 236.266 148.321 236.536C148.582 237.471 149.101 238.315 149.817 238.972C150.53 239.808 151.336 240.559 152.221 241.212C153.496 242.34 154.585 243.661 155.45 245.127C156.283 247.344 156.936 249.624 157.404 251.945C158.458 256.45 163.756 266.464 171.121 266.898C172.889 267.059 174.67 266.926 176.394 266.505C177.604 266.276 178.79 265.867 178.912 264.87C178.952 264.789 178.985 264.704 179.01 264.617C179.01 264.617 178.961 264.543 178.888 264.404C178.843 264.161 178.766 263.924 178.659 263.701C177.664 261.822 176.544 260.011 175.307 258.281C173.287 254.396 171.872 250.225 171.113 245.912C171.072 245.634 171.04 245.365 171.007 245.095C170.86 243.844 170.664 242.454 170.574 241.056C170.574 240.909 170.574 240.762 170.574 240.623C170.464 238.507 170.873 236.396 171.767 234.475C173.165 232.219 175.732 231.001 178.258 230.388C180.032 229.963 182.239 229.366 184.692 228.638C187.72 227.897 190.688 226.927 193.57 225.736C203.445 222.188 213.689 217.373 215.52 212.656C218.422 205.193 224.128 197.124 224.128 197.124C221.275 178.477 207.042 157.679 207.042 157.679L245.383 131.732C245.727 131.519 244.353 128.822 241.892 124.571L242.563 125.633C245.081 127.072 249.667 127.718 252.373 127.988L252.97 128.045C253.393 128.094 253.819 128.11 254.245 128.094C257.172 125.511 259.779 120.622 261.529 115.831C263.915 110.173 265.465 104.197 266.131 98.0916C266.561 95.2103 266.667 92.2902 266.45 89.3852C266.458 88.3879 266.409 87.3742 266.319 86.3441ZM188.346 37.5393C188.657 37.0324 188.951 36.5665 189.213 36.1332L189.303 35.9206C190.177 34.4818 190.692 33.5417 190.692 33.5417L190.365 33.4681L190.472 33.2229L190.692 33.5417C190.063 34.958 189.276 36.299 188.346 37.5393Z" fill="white"/>
<path d="M248.923 95.9097C248.923 95.9097 251.948 105.94 264.791 103.136C264.791 103.136 267.431 96.5965 266.033 86.6393L268.379 81.5871C268.379 81.5871 267.685 73.6819 267.799 72.5047C267.913 71.3275 267.938 68.875 264.243 67.3626C260.548 65.8502 255.88 61.9753 254.58 64.0435C253.28 66.1118 253.444 67.1092 253.444 67.1092L250.174 69.5126L251.4 78.1781L256.231 83.8107C256.231 83.8107 255.594 88.9283 253.019 91.1682C251.431 92.5418 250.051 94.1391 248.923 95.9097Z" fill="#2D93D0"/>
<path opacity="0.2" d="M261.815 103.724C261.815 103.724 264.889 90.3904 262.878 82.5506C262.878 82.5506 267.383 78.3813 266.091 68.5631C266.091 68.5631 267.407 68.1953 267.726 70.6805C268.045 73.1657 268.355 81.1935 268.355 81.1935L266.165 86.2457C266.165 86.2457 266.001 97.7725 265.282 102.334C265.273 102.334 265.085 103.34 261.815 103.724Z" fill="black"/>
<path d="M201.173 59.0479L242.555 119.543C242.555 119.543 245.007 122.053 250.967 123.181C250.967 123.181 259.779 113.371 261.79 103.732L265.06 103.078C265.06 103.078 261.267 122.11 254.433 128.192C254.433 128.192 246.184 127.775 242.505 125.658L200.87 59.7754L201.173 59.0479Z" fill="#2D93D0"/>
<path opacity="0.6" d="M201.173 59.0479L242.555 119.543C242.555 119.543 245.007 122.053 250.967 123.181C250.967 123.181 259.779 113.371 261.79 103.732L265.06 103.078C265.06 103.078 261.267 122.11 254.433 128.192C254.433 128.192 246.184 127.775 242.505 125.658L200.87 59.7754L201.173 59.0479Z" fill="white"/>
<path d="M201.917 56.9385C205.363 57.1764 208.693 58.2872 211.592 60.1664C214.49 62.0456 216.864 64.6314 218.488 67.6804C220.45 71.4246 221.21 75.6838 222.951 79.5424C225.829 85.9271 231.208 90.8239 236.743 95.124C240.225 97.8217 243.879 100.413 246.553 103.92C247.911 105.69 248.909 107.709 249.487 109.864" stroke="#263238" stroke-linecap="round" stroke-linejoin="round"/>
<path d="M244.467 101.419C245.056 99.6535 246.389 97.3318 249.879 94.2744C255.733 89.165 256.199 83.794 256.199 83.794L251.367 78.1614L249.732 69.6267L253.264 67.8118C253.264 67.8118 253.468 64.7217 255.226 63.7734C256.983 62.8251 265.281 67.7628 267.104 69.1689C268.281 70.0845 267.578 74.548 268.363 81.1943C267.096 84.0638 266.172 86.2465 266.172 86.2465C268.289 111.475 254.384 128.184 254.384 128.184C250.298 127.963 246.271 127.108 242.448 125.65" stroke="#263238" stroke-linecap="round" stroke-linejoin="round"/>
<path d="M254.163 70.7295L256.714 73.0185C257.077 73.3675 257.474 73.6797 257.899 73.9505C258.533 74.441 259.287 74.7517 260.082 74.8497C260.744 74.8814 261.406 74.7785 262.027 74.5472C262.592 74.302 263.834 72.0947 263.998 71.5388" stroke="#263238" stroke-linecap="round" stroke-linejoin="round"/>
<path d="M248.801 95.3281C248.801 95.3281 251.425 106.552 265.306 102.882" stroke="#263238" stroke-linecap="round" stroke-linejoin="round"/>
<path d="M259.232 64.7861C258.533 65.0552 257.901 65.4742 257.381 66.0138C256.862 66.5533 256.466 67.2002 256.224 67.909C255.891 68.6164 255.711 69.3857 255.694 70.1672C255.677 70.9487 255.824 71.725 256.126 72.4461" stroke="#263238" stroke-linecap="round" stroke-linejoin="round"/>
<path d="M263.108 66.6748C262.235 66.9392 261.43 67.3927 260.752 68.0031C260.074 68.6135 259.538 69.3657 259.184 70.2064C258.595 71.53 258.472 73.0137 258.832 74.4165" stroke="#263238" stroke-linecap="round" stroke-linejoin="round"/>
<path d="M258.283 74.2129C259.187 74.7047 260.014 75.3273 260.736 76.0604C262.24 77.7363 262.526 80.1479 262.747 82.3716" stroke="#263238" stroke-linecap="round" stroke-linejoin="round"/>
<path d="M253.247 67.8106C253.247 67.8106 255.904 66.1756 256.354 67.0585" stroke="#263238" stroke-linecap="round" stroke-linejoin="round"/>
<path d="M79.3571 240.861C79.3571 240.861 63.7183 236.814 61.4374 223.301C59.2902 229.873 56.2418 236.115 52.3795 241.85C46.2728 250.638 34.1656 260.718 34.1165 264.241C34.0675 267.765 34.7951 269.923 37.967 272.882C41.1389 275.842 41.4822 283.657 41.6048 285.496C41.846 287.415 42.49 289.261 43.4945 290.914C44.499 292.566 45.8414 293.988 47.4336 295.086C51.9789 298.356 59.3119 299.704 64.7074 297.489C70.103 295.274 69.7024 291.137 67.8957 289.118C66.089 287.099 55.2162 277.125 54.8157 273.749C54.4151 270.373 55.5841 263.497 59.1893 258.036C62.7945 252.576 71.6644 244.212 79.3571 240.861Z" fill="#2D93D0"/>
<path d="M205.155 49.5322C205.155 49.5322 201.811 55.0013 200.806 59.7673" stroke="#263238" stroke-linecap="round" stroke-linejoin="round"/>
<path d="M208.318 12.7031C209.495 16.0631 210.435 19.7663 209.274 23.1263C208.563 25.1945 207.116 26.9358 206.38 28.9878C205.563 31.2195 205.669 33.672 205.767 36.0428C205.906 39.2474 206.127 42.6809 208.105 45.1988C210.991 48.8776 216.346 49.1637 220.662 50.9785C220.662 50.9785 217.76 54.1259 205.857 49.5561L201.769 48.0764L199.603 57.9845C199.603 57.9845 198.328 55.8427 196.333 56.1697C194.338 56.4967 189.041 60.4452 189.041 60.4452C189.041 60.4452 186 57.4368 185.321 55.4094C184.643 53.382 182.787 48.526 180.629 47.4061C180.629 47.4061 189.621 36.5169 190.619 33.5658C190.619 33.5658 185.518 26.8459 191.371 24.2054C197.224 21.5648 200.437 28.2929 200.437 28.2929L198.377 19.5701L206.225 12.932L208.318 12.7031Z" fill="#2D93D0"/>
<path opacity="0.6" d="M208.318 12.7031C209.495 16.0631 210.435 19.7663 209.274 23.1263C208.563 25.1945 207.116 26.9358 206.38 28.9878C205.563 31.2195 205.669 33.672 205.767 36.0428C205.906 39.2474 206.127 42.6809 208.105 45.1988C210.991 48.8776 216.346 49.1637 220.662 50.9785C220.662 50.9785 217.76 54.1259 205.857 49.5561L201.769 48.0764L199.603 57.9845C199.603 57.9845 198.328 55.8427 196.333 56.1697C194.338 56.4967 189.041 60.4452 189.041 60.4452C189.041 60.4452 186 57.4368 185.321 55.4094C184.643 53.382 182.787 48.526 180.629 47.4061C180.629 47.4061 189.621 36.5169 190.619 33.5658C190.619 33.5658 185.518 26.8459 191.371 24.2054C197.224 21.5648 200.437 28.2929 200.437 28.2929L198.377 19.5701L206.225 12.932L208.318 12.7031Z" fill="white"/>
<path d="M215.7 9.91602L220.506 19.2028C220.626 19.4256 220.674 19.6794 220.645 19.9304L220.269 23.4702C220.237 23.7825 220.318 24.0961 220.498 24.3531L223.85 29.0619C224.024 29.3047 224.109 29.6003 224.089 29.8984C224.07 30.1965 223.948 30.4787 223.744 30.6969L221.291 33.3947C221.174 33.5248 221.083 33.6772 221.026 33.8429C220.968 34.0086 220.944 34.1843 220.956 34.3593L221.937 48.592C221.975 49.1417 221.838 49.6893 221.544 50.1553C221.25 50.6213 220.815 50.9815 220.302 51.1835C219.12 51.5846 217.88 51.7917 216.632 51.7966C212.356 51.9438 204.263 49.0662 202.137 48.2814C201.972 48.2215 201.82 48.1282 201.692 48.0072C201.564 47.8863 201.462 47.7403 201.393 47.5783L197.854 39.2071" stroke="#263238" stroke-linecap="round" stroke-linejoin="round"/>
<path d="M197.445 28.497C197.445 28.497 194.992 23.0034 192.891 23.592C190.79 24.1806 188.281 26.0445 188.338 28.546C188.395 31.0476 192.237 35.3967 193.872 35.7809C195.079 35.9779 196.315 35.8826 197.478 35.503" stroke="#263238" stroke-linecap="round" stroke-linejoin="round"/>
<path d="M217 24.5003C217 25.3178 216.665 25.9718 216.272 25.9636C215.88 25.9554 215.569 25.2932 215.586 24.4839C215.602 23.6746 215.921 23.0124 216.313 23.0206C216.706 23.0288 217.016 23.6909 217 24.5003Z" fill="#263238"/>
<path d="M214.058 34.2197C214.063 35.0874 214.365 35.9271 214.914 36.5993C215.463 37.2715 216.225 37.7357 217.074 37.9148" stroke="#263238" stroke-linecap="round" stroke-linejoin="round"/>
<path d="M217.196 19.3585C217.196 19.3585 213.542 16.1784 211.408 22.0317" stroke="#263238" stroke-width="2" stroke-linecap="round" stroke-linejoin="round"/>
<path d="M189.924 33.4268L190.562 33.5657C190.562 33.5657 185.584 42.6155 180.572 47.406" stroke="#263238" stroke-linecap="round" stroke-linejoin="round"/>
<path d="M191.739 34.5967C191.739 34.5967 189.696 50.211 192.557 57.405" stroke="#263238" stroke-linecap="round" stroke-linejoin="round"/>
<path d="M188.118 19.3002C188.118 19.3002 184.749 12.6948 189.475 6.47363" stroke="#263238" stroke-linecap="round" stroke-linejoin="round"/>
<path d="M189.417 18.164C183 17.8125 181.087 25.5215 181.087 25.5215" stroke="#263238" stroke-linecap="round" stroke-linejoin="round"/>
<path d="M218.88 0.82569C217.147 -0.138962 213.762 5.7307 205.309 3.88314C199.922 2.72229 186.973 6.27842 187.725 18.0668C187.725 18.0668 177.841 23.7893 189.082 36.1581L190.529 32.7982C190.529 32.7982 185.844 27.7787 189.891 25.2363C193.472 22.9963 193.929 23.2661 197.338 28.6861C197.338 28.6861 198.483 31.0569 200.707 30.3865C202.93 29.7162 202.832 28.7924 201.933 26.5606C201.598 25.7431 201.042 24.3534 200.584 22.8328C202.611 22.2524 207.484 20.1596 207.418 13.4397V13.3416C211.726 12.1481 216.697 10.742 218.185 8.35488C220.694 4.34912 220.613 1.78217 218.88 0.82569Z" fill="#263238"/>
<path d="M190.022 17.756C189.401 14.0854 191.927 10.4475 195.189 8.6654C198.451 6.88324 202.309 6.58895 206.029 6.52355C208.4 6.59646 210.772 6.40452 213.1 5.95129C213.915 5.76451 214.707 5.49043 215.463 5.13379" stroke="white" stroke-width="0.5" stroke-linecap="round" stroke-linejoin="round"/>
<path d="M191.853 19.733C192.105 18.317 192.782 17.0112 193.794 15.9891C194.805 14.967 196.104 14.2769 197.518 14.0105C198.997 13.7652 200.534 14.0105 202.006 13.6998C203.477 13.3892 204.982 12.261 204.916 10.7568" stroke="white" stroke-width="0.5" stroke-linecap="round" stroke-linejoin="round"/>
<path d="M154.665 84.6279L193.807 56.7592C194.259 56.4378 194.772 56.2136 195.314 56.101C195.857 55.9884 196.417 55.9898 196.959 56.1051C197.501 56.2204 198.013 56.4471 198.462 56.7708C198.912 57.0945 199.289 57.5082 199.571 57.9855C199.571 57.9855 247.092 130.588 245.253 131.732L135.797 205.365C133.925 206.542 90.2789 134.863 90.2789 134.863C89.7368 133.997 89.5458 132.956 89.7448 131.953C89.9438 130.951 90.5178 130.062 91.3498 129.468L112.082 114.45" stroke="#263238" stroke-linecap="round" stroke-linejoin="round"/>
<path d="M183.278 173.081C185.224 177.814 189.483 181.142 193.701 184.036C197.92 186.93 202.4 189.758 205.204 194.025C208.008 198.293 208.58 204.555 205.007 208.209C204.689 208.604 204.279 208.915 203.813 209.116C203.348 209.317 202.84 209.401 202.334 209.362C200.012 208.904 200.421 205.111 198.533 203.688C195.68 207.727 189.786 209.28 186.483 209.746L188.24 202.029C188.24 202.029 192.565 201.546 195.802 196.919C195.802 196.919 195.672 194.843 188.142 192.39C180.613 189.938 172.798 180.332 172.798 180.332L183.278 173.081Z" fill="#2D93D0"/>
<path opacity="0.6" d="M183.278 173.081C185.224 177.814 189.483 181.142 193.701 184.036C197.92 186.93 202.4 189.758 205.204 194.025C208.008 198.293 208.58 204.555 205.007 208.209C204.689 208.604 204.279 208.915 203.813 209.116C203.348 209.317 202.84 209.401 202.334 209.362C200.012 208.904 200.421 205.111 198.533 203.688C195.68 207.727 189.786 209.28 186.483 209.746L188.24 202.029C188.24 202.029 192.565 201.546 195.802 196.919C195.802 196.919 195.672 194.843 188.142 192.39C180.613 189.938 172.798 180.332 172.798 180.332L183.278 173.081Z" fill="white"/>
<path d="M195.671 224.624C195.671 224.624 183.613 218.346 187.864 202.225C187.864 202.225 179.591 201.481 172.544 209.141C165.497 216.801 158.401 227.477 158.401 227.477C158.401 227.477 147.97 230.633 148.076 234.639C148.182 238.644 151.191 240.459 153.251 242.094C155.311 243.729 156.21 247.424 157.265 251.904C158.319 256.384 163.617 266.423 170.982 266.856C178.348 267.29 178.863 264.576 178.863 264.576C178.863 264.576 177.302 261.821 175.274 258.428C173.247 255.035 170.484 246.983 170.418 240.566C170.353 234.148 172.961 231.311 177.465 230.257C181.97 229.202 190.177 227.584 195.671 224.624Z" fill="#2D93D0"/>
<path d="M173.231 180.611C171.964 179.336 180.67 189.784 189.834 192.996C198.827 196.16 198.827 200.648 198.827 200.648" stroke="#263238" stroke-linecap="round" stroke-linejoin="round"/>
<path d="M206.911 157.68C206.911 157.68 221.112 178.461 223.973 197.108C223.973 197.108 218.25 205.185 215.356 212.64C212.462 220.096 188.24 227.903 178.103 230.364C175.356 231.026 172.544 232.391 171.26 235.048C169.83 238.007 170.5 241.931 170.86 245.071C171.205 248.537 172.068 251.931 173.418 255.142C174.776 258.208 177.097 260.685 178.52 263.677C179.681 266.129 176.688 266.456 174.857 266.702C163.6 268.23 157.992 255.935 156.643 248.782C155.294 241.629 148.836 239.937 148.133 236.446C146.833 230.004 158.401 227.453 158.401 227.453C158.18 227.919 166.993 214.504 172.544 209.117C174.686 207.024 177.007 204.98 179.901 203.869C182.795 202.757 186.106 202.642 189.18 201.866C192.254 201.089 195.393 199.25 196.022 196.339" stroke="#263238" stroke-linecap="round" stroke-linejoin="round"/>
<path d="M188.019 202.324C188.019 202.324 182.231 216.982 196.022 224.716" stroke="#263238" stroke-linecap="round" stroke-linejoin="round"/>
<path d="M177.023 177.913C181.319 183.209 186.917 187.299 193.267 189.783" stroke="#263238" stroke-linecap="round" stroke-linejoin="round"/>
<path d="M189.802 204.768C187.111 204.937 184.457 205.487 181.921 206.403C179.373 207.328 177.116 208.914 175.381 210.997" stroke="#263238" stroke-linecap="round" stroke-linejoin="round"/>
<path opacity="0.2" d="M186.745 210.058C181.785 211.908 176.987 214.164 172.397 216.802C167.799 219.452 163.87 223.121 160.912 227.528C160.585 228.098 160.198 228.632 159.759 229.122C158.672 230.209 157.069 230.536 155.63 231.084C152.459 232.294 148.616 237.321 148.682 237.002C148.682 237.002 143.973 231.28 158.402 227.446C158.402 227.446 165.808 216.63 170.779 211.161C175.749 205.692 178.553 203.166 187.611 202.242L186.745 210.058Z" fill="black"/>
<path d="M187.423 61.3283L188.421 60.4372C187.088 58.5322 185.902 56.5291 184.873 54.445C183.793 51.9924 182.624 47.1937 178.447 46.5152C174.27 45.8367 167.819 48.5426 167.819 48.5426C167.819 48.5426 158.59 45.06 150.595 46.9076C150.595 46.9076 139.526 49.5972 130.157 60.895C120.789 72.1929 113.415 80.6541 95.4542 86.4093C77.4937 92.1645 55.6337 94.1101 48.9629 98.2058C48.9629 98.2058 61.4053 102.432 62.1737 112.659C62.9422 122.886 56.1733 130.742 59.3533 136.923C62.5334 143.103 68.4276 144.411 71.0273 147.926C73.6269 151.442 76.8479 159.862 78.3439 163.156C79.8399 166.451 89.4865 176.506 101.585 177.659C101.585 177.659 103.964 166.704 106.997 162.126L90.304 134.846C90.304 134.846 88.3256 131.797 91.6365 129.124C94.9474 126.451 112.074 114.466 112.074 114.466C112.074 114.466 109.27 109.275 108.722 105.081C108.321 102.473 107.061 100.073 105.142 98.263C105.142 98.263 107.079 92.2871 111.624 88.78C116.17 85.2729 124.77 77.0325 128.53 71.6779C132.291 66.3233 140.695 50.619 156.146 48.7143C159.201 49.7678 162.022 51.406 164.451 53.5375C168.686 57.1591 176.869 63.4129 187.423 61.3283Z" fill="#2D93D0"/>
<path opacity="0.2" d="M101.585 177.659C101.585 177.659 91.285 177.659 82.5132 168.078C73.7414 158.497 75.9732 153.682 72.0328 149.079C68.0924 144.477 61.0456 141.607 59.3533 136.907C57.6611 132.206 61.5361 120.655 62.1001 116.625C62.6642 112.594 60.0564 100.978 48.9629 98.1899C48.9629 98.1899 61.9448 93.4157 73.2427 91.7316C84.5406 90.0476 100.416 85.7557 107.717 81.4884C115.017 77.221 127.41 64.4761 129.789 61.7293C132.168 58.9825 140.973 49.6058 147.774 48.028C153.252 46.7609 156.203 48.7147 156.203 48.7147C156.203 48.7147 143.123 51.4942 136.158 60.2251C130.558 67.2066 129.421 72.6266 121.909 79.7471C114.396 86.8675 107.774 90.2438 105.142 97.6013C105.142 97.6013 107.88 101.591 108.289 104.084C108.698 106.577 112.131 114.466 112.131 114.466L91.3994 129.484C91.3994 129.484 88.1294 131.323 90.4348 135.394C92.7401 139.466 107.087 162.372 107.087 162.372C107.087 162.372 101.324 173.637 101.585 177.659Z" fill="black"/>
<path opacity="0.38" d="M168.62 48.4447C168.62 48.4447 177.212 45.5344 179.942 47.1694C182.673 48.8044 188.428 60.9198 188.428 60.9198L186.883 62.2033C186.883 62.2033 174.874 61.0833 170.574 57.9686C166.273 54.8539 160.763 48.2567 150.88 47.5291C150.896 47.5291 156.439 45.2238 168.62 48.4447Z" fill="white"/>
<path d="M149.662 47.4482C138.847 50.5793 135.511 55.9421 129.74 61.7136C125.505 65.9483 121.638 70.5508 117.248 74.622C98.9444 91.577 71.6153 89.1081 48.3574 98.166C51.7638 98.7653 54.9 100.408 57.3325 102.867C59.7649 105.326 61.3736 108.479 61.9361 111.892C63.2278 119.413 56.745 130.416 59.6962 137.455C61.6255 142.058 67.1681 143.84 70.6262 147.445C74.7137 151.672 75.5312 157.983 78.3189 163.125C82.9623 171.594 91.9139 176.098 101.56 177.644" stroke="#263238" stroke-linecap="round" stroke-linejoin="round"/>
<path d="M106.612 100.422C105.296 101.763 104.111 103.226 102.819 104.583C96.3199 111.385 87.3437 115.153 78.6455 118.75" stroke="#263238" stroke-linecap="round" stroke-linejoin="round"/>
<path d="M108.878 106.536C104.022 112.259 97.2445 114.997 90.6636 118.627C84.0827 122.257 77.4283 126.925 74.8613 133.988" stroke="#263238" stroke-linecap="round" stroke-linejoin="round"/>
<path d="M172.25 52.172C163.895 42.5582 147.725 48.0109 147.725 48.0109C153.905 47.1934 158.589 48.0109 167.729 55.6873C174.866 61.6795 183.409 61.9657 186.711 61.7776" stroke="#263238" stroke-linecap="round" stroke-linejoin="round"/>
<path d="M167.64 48.6085C170.328 47.8338 173.057 47.2088 175.815 46.7364C176.556 46.5829 177.315 46.5307 178.071 46.5811C178.87 46.7159 179.634 47.0105 180.317 47.4473C180.999 47.8842 181.587 48.4543 182.044 49.1235C182.949 50.4653 183.716 51.895 184.333 53.3909C185.504 55.8447 186.891 58.1892 188.478 60.3969" stroke="#263238" stroke-linecap="round" stroke-linejoin="round"/>
<path d="M115.032 175.468C115.032 175.468 105.427 183.267 102.77 196.143C101.898 195.216 101.287 194.075 101 192.836C100.712 191.596 100.759 190.303 101.135 189.088C101.135 189.088 74.1571 200.582 63.6522 229.824L61.3877 223.284C61.3877 223.284 65.0174 202.699 78.0647 193.543C91.2592 184.273 100.881 182.098 100.881 182.098C100.881 182.098 102.516 167.849 107.029 162.756L115.032 175.468Z" fill="#2D93D0"/>
<path opacity="0.6" d="M115.032 175.501C115.032 175.501 105.427 183.267 102.77 196.143C101.898 195.217 101.287 194.076 101 192.836C100.712 191.597 100.759 190.304 101.135 189.088C101.135 189.088 74.1571 200.582 63.6522 229.824L61.3877 223.284C61.3877 223.284 65.0174 202.699 78.0647 193.543C91.2592 184.273 100.881 182.098 100.881 182.098C100.881 182.098 102.516 168.037 107.029 162.944L115.032 175.501Z" fill="white"/>
<path d="M127.434 194.083C125.799 194.802 124.385 195.489 122.643 196.192C122.643 196.192 118.458 210.041 101.625 215.183C98.7968 224.437 94.2679 229.007 90.0659 233.446C83.6076 240.321 75.1138 241.457 68.165 247.956C61.0119 254.652 54.758 261.797 54.6027 272.138C54.4719 280.378 76.6343 290.385 66.2521 296.483C55.8698 302.582 42.1685 294.235 41.727 286.264C41.2856 278.294 39.9612 275.326 36.0045 271.01C31.6227 266.195 34.9417 262.017 38.7922 257.971C46.7219 249.591 53.5072 242.054 58.4694 231.525C62.3444 220.709 64.8214 204.735 76.7406 194.157C84.5396 187.232 100.914 182.082 100.914 182.082C100.914 182.082 101.658 171.455 107.037 162.372" stroke="#263238" stroke-linecap="round" stroke-linejoin="round"/>
<path d="M61.3066 222.621C61.5928 221.804 63.7592 238.881 79.8721 240.475" stroke="#263238" stroke-linecap="round" stroke-linejoin="round"/>
<path d="M89.2573 189.701C82.7004 192.696 77.2886 197.732 73.8311 204.056" stroke="#263238" stroke-linecap="round" stroke-linejoin="round"/>
<path d="M96.4434 187.24C94.5707 187.664 92.7361 188.241 90.958 188.965" stroke="#263238" stroke-linecap="round" stroke-linejoin="round"/>
<path d="M46.5586 290.475C48.108 292.77 50.3106 294.548 52.8815 295.579C55.4524 296.609 58.2733 296.844 60.9793 296.254" stroke="#263238" stroke-linecap="round" stroke-linejoin="round"/>
<path opacity="0.2" d="M63.8162 229.055C61.0367 236.813 57.1045 243.77 51.0059 249.313C48.4226 251.667 45.5777 253.76 43.2478 256.376C40.918 258.992 39.0868 262.27 39.0868 265.769C39.1875 267.785 39.587 269.774 40.2721 271.672C41.2204 274.729 42.1633 277.781 43.1007 280.828C43.654 282.987 44.5158 285.054 45.6595 286.967C46.9114 288.765 48.5372 290.271 50.4255 291.382C53.0464 293.096 56.1145 294.001 59.2463 293.981C62.3529 293.867 66.097 291.406 67.8955 288.864C67.8955 288.864 70.3971 291.234 68.1408 295.15C65.8845 299.066 55.7965 299.14 52.739 297.922C49.6816 296.704 43.1579 292.657 41.9071 288.242C40.6564 283.828 42.4712 279.61 39.4546 275.759C36.438 271.909 32.1707 268.761 34.1082 264.249C36.0456 259.736 46.7304 250.09 49.7306 245.602C52.7309 241.113 60.0638 231.14 61.0612 223.096L63.8162 229.055Z" fill="black"/>
<path d="M182.812 119.036L243.323 127.71L244.827 131.528L182.975 120.745L182.812 119.036Z" fill="#2D93D0"/>
<path opacity="0.6" d="M182.812 119.036L243.323 127.71L244.827 131.528L182.975 120.745L182.812 119.036Z" fill="white"/>
<path d="M151.411 143.431L132.339 200.95L135.748 205.119L152.188 145.049L151.411 143.431Z" fill="#2D93D0"/>
<path opacity="0.6" d="M151.411 143.431L132.339 200.95L135.748 205.119L152.188 145.049L151.411 143.431Z" fill="white"/>
<path d="M197.552 56.4404L177.883 151.622L90.2791 134.863L89.8867 133.392L175.16 147.249L197.552 56.4404Z" fill="#2D93D0"/>
<path opacity="0.6" d="M197.552 56.4404L177.883 151.622L90.2791 134.863L89.8867 133.392L175.16 147.249L197.552 56.4404Z" fill="white"/>
<path d="M196.676 95.258C202.902 92.525 205.734 85.2622 203.001 79.0362C200.268 72.8101 193.005 69.9785 186.779 72.7115C180.553 75.4446 177.721 82.7074 180.454 88.9334C183.188 95.1594 190.45 97.9911 196.676 95.258Z" fill="#2D93D0"/>
<path d="M193.521 71.5713L197.191 56.3086" stroke="#263238" stroke-linecap="round" stroke-linejoin="round"/>
<path d="M135.69 204.964L152.932 143.406" stroke="#263238" stroke-linecap="round" stroke-linejoin="round"/>
<path d="M181.643 120.68L245.056 131.438" stroke="#263238" stroke-linecap="round" stroke-linejoin="round"/>
<path d="M141.88 109.055L172.397 87.1055" stroke="#263238" stroke-linecap="round" stroke-linejoin="round"/>
<path d="M143.506 113.559L174.734 91.0693" stroke="#263238" stroke-linecap="round" stroke-linejoin="round"/>
<path d="M147.029 120.909C150.528 121.187 154.55 118.709 156.545 115.865C158.54 113.02 160.126 109.733 163.003 107.739C164.943 106.567 167.053 105.704 169.257 105.18C171.465 104.649 173.539 103.666 175.348 102.294C177.056 100.814 178.143 98.4354 177.457 96.3018" stroke="#263238" stroke-linecap="round" stroke-linejoin="round"/>
<path d="M149.139 123.803C152.638 124.342 155.85 121.898 158.041 119.143C160.232 116.388 161.933 113.167 164.802 111.107C167.035 109.396 169.617 108.197 172.364 107.592C176.999 106.774 180.089 103.937 180.245 101.166" stroke="#263238" stroke-linecap="round" stroke-linejoin="round"/>
<path d="M191.673 96.1056C198.455 96.1056 203.952 90.6082 203.952 83.8267C203.952 77.0453 198.455 71.5479 191.673 71.5479C184.892 71.5479 179.395 77.0453 179.395 83.8267C179.395 90.6082 184.892 96.1056 191.673 96.1056Z" stroke="#263238" stroke-linecap="round" stroke-linejoin="round"/>
<path d="M154.665 84.6279L193.807 56.7592C194.259 56.4378 194.772 56.2136 195.314 56.101C195.857 55.9884 196.417 55.9898 196.959 56.1051C197.501 56.2204 198.013 56.4471 198.462 56.7708C198.912 57.0945 199.289 57.5082 199.571 57.9855C199.571 57.9855 247.092 130.588 245.253 131.732L135.797 205.365C133.925 206.542 90.2789 134.863 90.2789 134.863C89.7368 133.997 89.5458 132.956 89.7448 131.953C89.9438 130.951 90.5178 130.062 91.3498 129.468L112.082 114.45" stroke="#263238" stroke-linecap="round" stroke-linejoin="round"/>
<path d="M175.862 144.094L187.569 95.583" stroke="#263238" stroke-linecap="round" stroke-linejoin="round"/>
<path d="M89.666 133.399L153.112 143.365" stroke="#263238" stroke-linecap="round" stroke-linejoin="round"/>
<path d="M130.1 129.557C130.1 129.557 139.967 130.759 144.815 118.047C144.815 118.047 150.537 126.508 155.221 129.672C155.221 129.672 157.216 129.149 161.606 130.203C165.059 130.886 168.575 131.207 172.095 131.16C172.095 131.16 171.007 134.977 168.588 135.051C167.014 135.055 165.461 134.686 164.059 133.972L163.519 135.304L179.746 147.452C179.951 147.714 180.102 148.013 180.19 148.333C180.278 148.653 180.302 148.987 180.26 149.316C180.219 149.645 180.112 149.963 179.946 150.251C179.781 150.538 179.56 150.79 179.297 150.992L167.852 143.062L167.312 144.403C167.312 144.403 174.163 153.543 174.359 154.982C174.555 156.42 174.228 156.519 173.125 156.617C172.021 156.715 170.394 155.031 170.394 155.031L164.271 146.226L163.208 147.199C163.208 147.199 167.59 156.192 167.026 158.096C166.462 160.001 163.961 157.352 163.961 157.352L160.56 149.365C160.56 149.365 161.892 155.668 159.898 156.519C157.903 157.369 157.756 154.834 157.224 148.818L151.927 141.583C151.927 141.583 136.443 134.552 130.1 129.557Z" fill="#2D93D0"/>
<path opacity="0.2" d="M135.658 128.43L152.875 140.267L157.183 148.818L152.638 142.295L130.018 130.351L135.658 128.43Z" fill="black"/>
<path d="M162.121 51.911C154.625 55.9985 153.57 57.2492 149.654 60.6828C144.749 64.9828 140.228 70.4928 139.738 76.9674C139.584 78.0843 139.763 79.2219 140.253 80.2374C141.283 82.0768 143.801 82.6327 145.828 82.0522C147.856 81.4718 149.507 80.033 151.085 78.6351C150.652 79.0193 150.398 80.3273 150.03 80.875C149.553 81.5894 148.971 82.2286 148.305 82.7716C146.791 83.9304 145.055 84.7652 143.204 85.2241C138.716 86.5076 133.787 86.4259 129.143 87.3496C124.238 88.3225 120.894 90.8567 117.747 94.6418C115.515 97.3232 119.382 104.247 120.502 107.55C123.102 115.464 129.74 122.568 135.659 128.421L130.1 129.549C130.1 129.549 115.098 121.611 112.115 114.442C109.131 107.272 107.447 101.19 104.863 97.8218C104.863 97.8218 107.046 92.6798 116.643 84.235C126.241 75.7902 131.203 67.468 134.923 62.4077C139.942 55.5652 151.518 49.1151 156.178 48.69C156.137 48.6736 158.132 49.0088 162.121 51.911Z" fill="#2D93D0"/>
<path opacity="0.6" d="M162.236 51.8543C154.731 55.9418 153.57 57.2498 149.654 60.6833C144.749 64.9834 140.228 70.4933 139.738 76.968C139.584 78.0849 139.763 79.2225 140.253 80.238C141.283 82.0773 143.801 82.6332 145.828 82.0528C147.856 81.4724 149.507 80.0336 151.085 78.6357C150.652 79.0199 150.398 80.3279 150.03 80.8756C149.553 81.59 148.971 82.2292 148.305 82.7722C146.791 83.931 145.055 84.7658 143.204 85.2247C138.716 86.5082 133.787 86.4264 129.143 87.3502C124.238 88.323 120.894 90.8573 117.747 94.6423C115.515 97.3237 119.382 104.248 120.502 107.551C123.102 115.464 129.74 122.568 135.659 128.422L130.1 129.55C130.1 129.55 115.098 121.612 112.115 114.442C109.131 107.273 107.447 101.191 104.863 97.8224C104.863 97.8224 107.046 92.6803 116.643 84.2355C126.241 75.7908 131.203 67.4686 134.923 62.4083C139.942 55.5658 152.09 49.1565 156.75 48.7314C158.663 49.6165 160.498 50.6612 162.236 51.8543Z" fill="white"/>
<path d="M137.661 102.719C144.438 98.0997 155.229 88.6249 157.118 77" stroke="#263238" stroke-linecap="round" stroke-linejoin="round"/>
<path d="M157.429 131.119C151.159 127.316 146.37 121.492 143.85 114.606C140.343 105.09 136.648 99.5718 127.304 96.0156" stroke="#263238" stroke-linecap="round" stroke-linejoin="round"/>
<path d="M114.665 113.143C117.541 117.77 121.699 121.462 126.633 123.77" stroke="#263238" stroke-linecap="round" stroke-linejoin="round"/>
<path d="M111.795 106.978C112.277 108.505 112.898 109.986 113.651 111.4" stroke="#263238" stroke-linecap="round" stroke-linejoin="round"/>
<path d="M130.1 129.558C130.1 129.558 140.956 129.844 145.011 117.549" stroke="#263238" stroke-linecap="round" stroke-linejoin="round"/>
<path d="M149.082 54.5344C150.877 53.8097 152.739 53.2621 154.641 52.8994" stroke="#263238" stroke-linecap="round" stroke-linejoin="round"/>
<path d="M134.538 67.7381C137.338 62.4348 141.733 58.1453 147.103 55.4756" stroke="#263238" stroke-linecap="round" stroke-linejoin="round"/>
<path d="M127.173 93.8652C128.666 94.256 130.058 94.9634 131.255 95.9395C132.451 96.9156 133.423 98.1375 134.105 99.5223" stroke="#263238" stroke-linecap="round" stroke-linejoin="round"/>
<path d="M155.826 129.975C157.985 128.986 160.731 129.787 162.023 130.204C163.789 130.752 170.754 131.733 172.07 131.16C173.386 130.588 170.918 134.161 169.397 134.864C167.876 135.567 164.034 133.973 164.034 133.973L163.495 135.305C163.495 135.305 179.174 146.268 180.065 147.821C180.956 149.374 180.352 150.879 179.297 150.993C178.242 151.107 167.852 143.063 167.852 143.063L167.312 144.404C167.312 144.404 175.487 154.876 174.67 155.972C173.852 157.067 172.136 156.626 170.811 155.236C169.487 153.846 164.271 146.243 164.271 146.243L163.209 147.216C163.209 147.216 167.599 157.026 167.026 158.113C166.454 159.201 165.081 158.808 164.279 157.786C163.478 156.765 160.241 148.712 160.241 148.712C160.241 148.712 161.099 155.481 160.593 156.225C160.455 156.4 160.279 156.541 160.077 156.636C159.875 156.731 159.654 156.777 159.432 156.77C159.209 156.764 158.991 156.705 158.795 156.599C158.599 156.493 158.431 156.343 158.304 156.16C157.788 155.342 157.224 148.802 157.224 148.802L151.927 141.567C140.834 137.185 120.968 123.836 120.968 123.836C110.488 115.407 109.523 108.548 108.281 104.052C107.719 101.897 106.66 99.904 105.19 98.2314C108.027 87.2851 121.107 85.0533 131.171 67.6814C141.234 50.3095 156.946 48.748 156.946 48.748" stroke="#263238" stroke-linecap="round" stroke-linejoin="round"/>
<path d="M19.1887 206.854L0.860352 222.01" stroke="#263238" stroke-linecap="round" stroke-linejoin="round"/>
<path d="M67.0136 167.303L30.2832 197.673" stroke="#263238" stroke-linecap="round" stroke-linejoin="round"/>
<path d="M18.8452 153.813L11.6104 159.798" stroke="#263238" stroke-linecap="round" stroke-linejoin="round"/>
<path d="M53.1393 125.454L24.5186 149.121" stroke="#263238" stroke-linecap="round" stroke-linejoin="round"/>
<path d="M35.1955 146.031L17.75 160.46" stroke="#263238" stroke-linecap="round" stroke-linejoin="round"/>
<path d="M126.879 217.824L104.169 236.602" stroke="#263238" stroke-linecap="round" stroke-linejoin="round"/>
<path d="M139.019 207.785L129.985 215.249" stroke="#263238" stroke-linecap="round" stroke-linejoin="round"/>
<path d="M135.56 216.018L126.526 223.49" stroke="#263238" stroke-linecap="round" stroke-linejoin="round"/>
<path d="M236.931 52.7383L231.372 57.3326" stroke="#263238" stroke-linecap="round" stroke-linejoin="round"/>
<path d="M259.477 34.0908L239.579 50.5471" stroke="#263238" stroke-linecap="round" stroke-linejoin="round"/>
<path d="M221.127 147.625H300C300 147.625 299.182 143.881 295.855 142.72C292.528 141.559 290.132 142.72 290.132 138.779C290.132 134.839 289.143 132.861 285.399 132.076C285.399 132.076 283.036 123.598 275.54 122.805C268.043 122.012 262.721 123.002 261.536 127.539C260.351 132.076 259.173 134.439 257.007 134.242C254.841 134.046 251.285 131.88 249.511 136.016C247.737 140.153 247.737 142.556 244.973 141.739C242.21 140.921 236.692 137.398 232.359 144.502C232.384 144.477 225.264 141.518 221.127 147.625Z" fill="white"/>
<path d="M85.0298 62.2775H6.15723C6.15723 62.2775 6.97473 58.5252 10.302 57.3725C13.6292 56.2198 16.0245 57.3725 16.0245 53.424C16.0245 49.4754 17.0137 47.5134 20.7578 46.7205C20.7578 46.7205 23.1204 38.243 30.6169 37.45C38.1134 36.657 43.4353 37.6462 44.6207 42.1833C45.8061 46.7205 46.9833 49.083 49.1496 48.8868C51.316 48.6906 54.8722 46.5242 56.6461 50.6608C58.4201 54.7974 58.4201 57.2008 61.1833 56.3833C63.9464 55.5658 69.4564 52.0179 73.7892 59.122C73.7892 59.122 80.8932 56.1626 85.0298 62.2775Z" fill="white"/>
</svg>
