<svg width="32" height="32" viewBox="0 0 32 32" fill="none" xmlns="http://www.w3.org/2000/svg">
<path d="M19.2999 25.9336H3.19993C3.08882 25.9336 2.98882 25.8891 2.89993 25.8002C2.81105 25.7113 2.7666 25.6113 2.7666 25.5002C2.7666 24.4558 2.78349 23.5393 2.81727 22.7509C2.85105 21.9625 2.90082 21.2567 2.9666 20.6336H13.4333C14.9666 20.6336 16.2724 20.0891 17.3506 19.0002C18.4288 17.9113 18.9675 16.578 18.9666 15.0002C18.9666 13.8669 18.6502 12.8393 18.0173 11.9176C17.3844 10.9958 16.5342 10.3122 15.4666 9.86689L10.9999 8.10023C12.1999 7.43356 13.4613 6.92823 14.7839 6.58423C16.1066 6.24023 17.4786 6.06778 18.8999 6.06689C21.7444 6.06689 24.1777 7.02823 26.1999 8.95089C28.2222 10.8736 29.2333 13.2233 29.2333 16.0002C29.2333 18.7771 28.2724 21.1273 26.3506 23.0509C24.4288 24.9745 22.0786 25.9353 19.2999 25.9336ZM3.39993 18.0002C3.84438 16.4225 4.49994 14.9389 5.3666 13.5496C6.23327 12.1602 7.2666 10.9327 8.4666 9.86689L14.4666 12.3002C15.0444 12.5447 15.4999 12.9113 15.8333 13.4002C16.1666 13.8891 16.3333 14.4225 16.3333 15.0002C16.3333 15.8447 16.0502 16.5558 15.4839 17.1336C14.9177 17.7113 14.2119 18.0002 13.3666 18.0002H3.39993Z" fill="black"/>
</svg>
