<svg width="182" height="39" viewBox="0 0 182 39" fill="none" xmlns="http://www.w3.org/2000/svg">
<g clip-path="url(#clip0_18_92)">
<mask id="mask0_18_92" style="mask-type:luminance" maskUnits="userSpaceOnUse" x="0" y="0" width="182" height="39">
<path d="M182 0H0V38.7972H182V0Z" fill="white"/>
</mask>
<g mask="url(#mask0_18_92)">
<path d="M39.873 29.9139V8.7891C39.873 7.97588 40.1564 7.2859 40.7232 6.71911C41.29 6.15234 41.98 5.86895 42.7932 5.86895C43.6064 5.86895 44.2902 6.15234 44.8448 6.71911C45.4114 7.2859 45.6948 7.97588 45.6948 8.7891V16.5884H56.4513V8.7891C56.4513 7.97588 56.7347 7.2859 57.3015 6.71911C57.8683 6.15234 58.5582 5.86895 59.3715 5.86895C60.1846 5.86895 60.8686 6.15234 61.4229 6.71911C61.9897 7.2859 62.2731 7.97588 62.2731 8.7891V29.9139C62.2731 30.7271 61.9897 31.4171 61.4229 31.9839C60.8686 32.5384 60.1846 32.8155 59.3715 32.8155C58.5582 32.8155 57.8683 32.5384 57.3015 31.9839C56.7347 31.4171 56.4513 30.7271 56.4513 29.9139V21.9668H45.6948V29.9139C45.6948 30.7271 45.4114 31.4171 44.8448 31.9839C44.2902 32.5384 43.6064 32.8155 42.7932 32.8155C41.98 32.8155 41.29 32.5384 40.7232 31.9839C40.1564 31.4171 39.873 30.7271 39.873 29.9139ZM69.6503 20.8578H78.3183C78.146 19.5394 77.6838 18.4921 76.9323 17.7158C76.193 16.9396 75.2319 16.5515 74.049 16.5515C72.8663 16.5515 71.8928 16.9396 71.1289 17.7158C70.3773 18.4798 69.8845 19.5271 69.6503 20.8578ZM81.6452 30.5793C79.7108 32.2303 77.3635 33.0559 74.6035 33.0559C71.5356 33.0559 69.0036 32.0762 67.0074 30.1171C65.0114 28.158 64.0134 25.6385 64.0134 22.5582V22.4842C64.0134 20.562 64.4323 18.8001 65.2701 17.1984C66.1203 15.5967 67.3155 14.3214 68.8556 13.3726C70.3959 12.4116 72.127 11.9311 74.049 11.9311C75.3551 11.9311 76.5626 12.1343 77.6715 12.5409C78.7805 12.9476 79.7045 13.4835 80.4437 14.1488C81.1831 14.8142 81.8114 15.5781 82.329 16.4406C82.8465 17.2908 83.2222 18.1595 83.4563 19.0465C83.6905 19.9337 83.8076 20.8147 83.8076 21.6895C83.8076 22.515 83.5488 23.1864 83.0314 23.704C82.526 24.2092 81.8915 24.4617 81.1276 24.4617H69.7243C70.0077 25.7555 70.5806 26.7412 71.4432 27.4189C72.3179 28.0965 73.4023 28.4353 74.6959 28.4353C76.1991 28.4353 77.5606 27.9794 78.7805 27.0677C79.224 26.7598 79.6922 26.6057 80.185 26.6057C80.8505 26.6057 81.3863 26.8214 81.793 27.2525C82.1996 27.6714 82.4028 28.2135 82.4028 28.8789C82.4028 29.5074 82.1503 30.0741 81.6452 30.5793ZM88.8006 38.7668C87.7163 38.7668 86.669 38.5882 85.6587 38.2307C84.4389 37.8118 83.8289 37.0171 83.8289 35.8466C83.8289 35.1689 84.0568 34.6084 84.5127 34.1647C84.9686 33.7213 85.4985 33.4993 86.1022 33.4993C86.4965 33.4993 86.8107 33.5487 87.0447 33.6473C87.5869 33.8074 87.9936 33.8875 88.2646 33.8875C88.7944 33.8875 89.1949 33.8074 89.466 33.6473C89.7494 33.4871 90.0326 33.1606 90.3162 32.6677L90.5009 32.2242L83.5702 16.1633C83.373 15.5967 83.2745 15.153 83.2745 14.8326C83.2745 14.0195 83.5394 13.3603 84.0693 12.8551C84.6114 12.3376 85.2891 12.0789 86.1022 12.0789C86.8168 12.0789 87.3899 12.2637 87.8211 12.6333C88.2646 12.9907 88.6158 13.5265 88.8746 14.2413L93.2547 26.0511L97.5056 14.2782C98.06 12.8119 98.9779 12.0789 100.259 12.0789C101.011 12.0789 101.652 12.3314 102.182 12.8366C102.724 13.3418 102.995 13.9702 102.995 14.7219C102.995 15.2024 102.902 15.6583 102.718 16.0894L95.6389 33.0928C94.7765 35.1874 93.8462 36.6537 92.8482 37.4915C91.8624 38.3417 90.5132 38.7668 88.8006 38.7668ZM104.735 29.9509V17.2353H104.495C103.829 17.2353 103.262 17.0135 102.794 16.57C102.338 16.1142 102.111 15.5535 102.111 14.8882C102.111 14.2227 102.338 13.6621 102.794 13.2062C103.262 12.738 103.829 12.504 104.495 12.504H104.735V11.2102C104.735 9.01703 105.277 7.3783 106.361 6.29403C107.421 5.2344 108.967 4.70459 111 4.70459C111.986 4.70459 112.768 4.75387 113.348 4.85244C113.89 4.92637 114.352 5.1728 114.733 5.59172C115.128 6.01065 115.325 6.53429 115.325 7.16268C115.325 7.82802 115.097 8.39481 114.641 8.86302C114.198 9.3189 113.643 9.54686 112.977 9.54686H112.479C111.099 9.54686 110.409 10.28 110.409 11.7462V12.5409H112.904C113.569 12.5409 114.13 12.7688 114.586 13.2247C115.054 13.6684 115.289 14.2227 115.289 14.8882C115.289 15.5535 115.054 16.1142 114.586 16.57C114.13 17.0135 113.569 17.2353 112.904 17.2353H110.483V29.9509C110.483 30.7641 110.206 31.4479 109.651 32.0024C109.097 32.5445 108.413 32.8155 107.6 32.8155C106.787 32.8155 106.102 32.5445 105.548 32.0024C105.006 31.4479 104.735 30.7641 104.735 29.9509ZM124.753 33.0559C122.708 33.0559 120.848 32.5938 119.172 31.6697C117.496 30.7333 116.184 29.4641 115.236 27.8624C114.286 26.2607 113.812 24.4926 113.812 22.5582V22.4842C113.812 21.0426 114.09 19.675 114.644 18.3811C115.211 17.0875 115.975 15.9662 116.936 15.0175C117.91 14.0688 119.08 13.3171 120.448 12.7627C121.816 12.2082 123.275 11.9311 124.828 11.9311C126.873 11.9311 128.734 12.3931 130.409 13.3171C132.085 14.2413 133.396 15.5042 134.345 17.106C135.294 18.7078 135.769 20.4758 135.769 22.4103V22.4842C135.769 24.4064 135.294 26.1744 134.345 27.7886C133.396 29.4025 132.078 30.6841 130.391 31.6327C128.702 32.5815 126.824 33.0559 124.753 33.0559ZM124.828 28.0842C126.429 28.0842 127.705 27.5543 128.653 26.4947C129.614 25.4352 130.096 24.123 130.096 22.5582V22.4842C130.096 20.9439 129.59 19.6256 128.579 18.5291C127.582 17.4325 126.306 16.8842 124.753 16.8842C123.152 16.8842 121.87 17.4139 120.909 18.4736C119.961 19.5332 119.487 20.8455 119.487 22.4103V22.4842C119.487 24.0243 119.985 25.3428 120.983 26.4393C121.993 27.536 123.275 28.0842 124.828 28.0842ZM146.862 33.0559C144.816 33.0559 142.955 32.5938 141.28 31.6697C139.604 30.7333 138.291 29.4641 137.343 27.8624C136.394 26.2607 135.92 24.4926 135.92 22.5582V22.4842C135.92 21.0426 136.197 19.675 136.75 18.3811C137.319 17.0875 138.082 15.9662 139.044 15.0175C140.017 14.0688 141.187 13.3171 142.555 12.7627C143.923 12.2082 145.382 11.9311 146.935 11.9311C148.98 11.9311 150.841 12.3931 152.517 13.3171C154.191 14.2413 155.504 15.5042 156.453 17.106C157.402 18.7078 157.875 20.4758 157.875 22.4103V22.4842C157.875 24.4064 157.402 26.1744 156.453 27.7886C155.504 29.4025 154.186 30.6841 152.499 31.6327C150.81 32.5815 148.93 33.0559 146.862 33.0559ZM146.935 28.0842C148.536 28.0842 149.812 27.5543 150.761 26.4947C151.723 25.4352 152.202 24.123 152.202 22.5582V22.4842C152.202 20.9439 151.697 19.6256 150.686 18.5291C149.689 17.4325 148.413 16.8842 146.862 16.8842C145.259 16.8842 143.978 17.4139 143.016 18.4736C142.067 19.5332 141.594 20.8455 141.594 22.4103V22.4842C141.594 24.0243 142.093 25.3428 143.091 26.4393C144.102 27.536 145.382 28.0842 146.935 28.0842ZM179.411 7.60625V29.9509C179.411 30.7641 179.133 31.4479 178.579 32.0024C178.024 32.5445 177.34 32.8155 176.527 32.8155C175.714 32.8155 175.032 32.5445 174.476 32.0024C173.934 31.4479 173.663 30.7641 173.663 29.9509V29.6737C172.061 31.8668 169.954 32.9635 167.342 32.9635C166.146 32.9635 165.001 32.7356 163.905 32.2797C162.808 31.8114 161.822 31.146 160.947 30.2835C160.085 29.4211 159.394 28.3183 158.876 26.9753C158.36 25.6199 158.102 24.123 158.102 22.4842V22.4103C158.102 20.7716 158.354 19.2807 158.86 17.9376C159.377 16.5823 160.066 15.4734 160.928 14.6109C161.791 13.7484 162.77 13.0892 163.867 12.6333C164.963 12.1651 166.123 11.9311 167.342 11.9311C169.856 11.9311 171.964 12.9414 173.663 14.9621V7.60625C173.663 6.79304 173.934 6.11538 174.476 5.57324C175.032 5.01879 175.714 4.74155 176.527 4.74155C177.34 4.74155 178.024 5.01879 178.579 5.57324C179.133 6.11538 179.411 6.79304 179.411 7.60625ZM168.82 16.8102C167.441 16.8102 166.264 17.3338 165.291 18.3811C164.33 19.4162 163.849 20.7592 163.849 22.4103V22.4842C163.849 24.123 164.33 25.466 165.291 26.5133C166.264 27.5606 167.441 28.0842 168.82 28.0842C170.188 28.0842 171.347 27.5668 172.295 26.5317C173.256 25.4845 173.737 24.1353 173.737 22.4842V22.4103C173.737 20.7592 173.256 19.4162 172.295 18.3811C171.347 17.3338 170.188 16.8102 168.82 16.8102Z" fill="#0AA110"/>
<path d="M10.5142 7.14917C10.5142 4.24577 8.16048 1.89209 5.25708 1.89209C2.35368 1.89209 0 4.24577 0 7.14917V19.9764C0 22.8798 2.35368 25.2336 5.25708 25.2336C8.16048 25.2336 10.5142 22.8798 10.5142 19.9764V7.14917Z" fill="#0AA110"/>
<path d="M21.8687 17.8738C21.8687 14.9704 19.515 12.6167 16.6116 12.6167C13.7082 12.6167 11.3545 14.9704 11.3545 17.8738V19.9767C11.3545 22.88 13.7082 25.2337 16.6116 25.2337C19.515 25.2337 21.8687 22.88 21.8687 19.9767V17.8738Z" fill="#0AA110"/>
<path d="M33.2251 17.8738C33.2251 14.9704 30.8714 12.6167 27.968 12.6167C25.0646 12.6167 22.7109 14.9704 22.7109 17.8738V30.5959C22.7109 33.4993 25.0646 35.8529 27.968 35.8529C30.8714 35.8529 33.2251 33.4993 33.2251 30.5959V17.8738Z" fill="#0AA110"/>
</g>
</g>
<defs>
<clipPath id="clip0_18_92">
<rect width="182" height="39" fill="white"/>
</clipPath>
</defs>
</svg>
