<svg width="32" height="32" viewBox="0 0 32 32" fill="none" xmlns="http://www.w3.org/2000/svg">
<path d="M7.33301 15.9998H5.33301V9.33317H2.66634V6.6665H10.6663V9.33317H7.99967V13.0598L21.0837 9.5545L20.3103 6.6665H15.9997V3.99984H21.3037C21.6022 3.99325 21.8942 4.08704 22.1331 4.26618C22.3719 4.44532 22.5438 4.69944 22.621 4.98784L24.6917 12.7158L22.1157 13.4052L21.7743 12.1305L7.33301 15.9998ZM6.66634 27.9998C5.25185 27.9998 3.8953 27.4379 2.89511 26.4377C1.89491 25.4375 1.33301 24.081 1.33301 22.6665C1.33301 21.252 1.89491 19.8955 2.89511 18.8953C3.8953 17.8951 5.25185 17.3332 6.66634 17.3332C8.08083 17.3332 9.43738 17.8951 10.4376 18.8953C11.4378 19.8955 11.9997 21.252 11.9997 22.6665C11.9997 24.081 11.4378 25.4375 10.4376 26.4377C9.43738 27.4379 8.08083 27.9998 6.66634 27.9998ZM6.66634 23.9998C7.01996 23.9998 7.3591 23.8594 7.60915 23.6093C7.8592 23.3593 7.99967 23.0201 7.99967 22.6665C7.99967 22.3129 7.8592 21.9737 7.60915 21.7237C7.3591 21.4736 7.01996 21.3332 6.66634 21.3332C6.31272 21.3332 5.97358 21.4736 5.72353 21.7237C5.47348 21.9737 5.33301 22.3129 5.33301 22.6665C5.33301 23.0201 5.47348 23.3593 5.72353 23.6093C5.97358 23.8594 6.31272 23.9998 6.66634 23.9998ZM23.9997 27.9998C22.2316 27.9998 20.5359 27.2975 19.2856 26.0472C18.0354 24.797 17.333 23.1013 17.333 21.3332C17.333 19.5651 18.0354 17.8694 19.2856 16.6191C20.5359 15.3689 22.2316 14.6665 23.9997 14.6665C25.7678 14.6665 27.4635 15.3689 28.7137 16.6191C29.964 17.8694 30.6663 19.5651 30.6663 21.3332C30.6663 23.1013 29.964 24.797 28.7137 26.0472C27.4635 27.2975 25.7678 27.9998 23.9997 27.9998ZM23.9997 22.6665C24.3533 22.6665 24.6924 22.526 24.9425 22.276C25.1925 22.0259 25.333 21.6868 25.333 21.3332C25.333 20.9795 25.1925 20.6404 24.9425 20.3904C24.6924 20.1403 24.3533 19.9998 23.9997 19.9998C23.6461 19.9998 23.3069 20.1403 23.0569 20.3904C22.8068 20.6404 22.6663 20.9795 22.6663 21.3332C22.6663 21.6868 22.8068 22.0259 23.0569 22.276C23.3069 22.526 23.6461 22.6665 23.9997 22.6665Z" fill="black"/>
</svg>
