<svg width="32" height="32" viewBox="0 0 32 32" fill="none" xmlns="http://www.w3.org/2000/svg">
<path d="M10.6663 25.3332V25.9998C10.6663 26.5554 10.4721 27.0278 10.0837 27.4172C9.69523 27.8065 9.22279 28.0007 8.66634 27.9998C8.1099 27.9989 7.6379 27.8047 7.25034 27.4172C6.86279 27.0296 6.66812 26.5572 6.66634 25.9998V23.9332C6.26634 23.4887 5.94412 22.9945 5.69967 22.4505C5.45523 21.9065 5.33301 21.3118 5.33301 20.6665V7.99984C5.33301 6.15539 6.18856 4.80562 7.89967 3.9505C9.61079 3.09539 12.3108 2.66739 15.9997 2.6665C19.8219 2.6665 22.5552 3.07761 24.1997 3.89984C25.8441 4.72206 26.6663 6.08873 26.6663 7.99984V20.6665C26.6663 21.3109 26.5441 21.9056 26.2997 22.4505C26.0552 22.9954 25.733 23.4896 25.333 23.9332V25.9998C25.333 26.5554 25.1388 27.0278 24.7503 27.4172C24.3619 27.8065 23.8895 28.0007 23.333 27.9998C22.7766 27.9989 22.3046 27.8047 21.917 27.4172C21.5295 27.0296 21.3348 26.5572 21.333 25.9998V25.3332H10.6663ZM7.99967 13.3332H23.9997V9.33317H7.99967V13.3332ZM11.333 21.3332C11.8886 21.3332 12.361 21.1389 12.7503 20.7505C13.1397 20.3621 13.3339 19.8896 13.333 19.3332C13.3321 18.7767 13.1379 18.3047 12.7503 17.9172C12.3628 17.5296 11.8903 17.3349 11.333 17.3332C10.7757 17.3314 10.3037 17.5261 9.91701 17.9172C9.53034 18.3083 9.33567 18.7803 9.33301 19.3332C9.33034 19.8861 9.52501 20.3585 9.91701 20.7505C10.309 21.1425 10.781 21.3367 11.333 21.3332ZM20.6663 21.3332C21.2219 21.3332 21.6943 21.1389 22.0837 20.7505C22.473 20.3621 22.6672 19.8896 22.6663 19.3332C22.6655 18.7767 22.4712 18.3047 22.0837 17.9172C21.6961 17.5296 21.2237 17.3349 20.6663 17.3332C20.109 17.3314 19.637 17.5261 19.2503 17.9172C18.8637 18.3083 18.669 18.7803 18.6663 19.3332C18.6637 19.8861 18.8583 20.3585 19.2503 20.7505C19.6423 21.1425 20.1143 21.3367 20.6663 21.3332Z" fill="black"/>
</svg>
