<svg width="133" height="24" viewBox="0 0 133 24" fill="none" xmlns="http://www.w3.org/2000/svg">
<g clip-path="url(#clip0_6_12)">
<path d="M14.1782 4.69284C14.0973 4.67263 13.9052 4.62207 13.6019 4.54119C13.3086 4.46031 12.8941 4.38447 12.3583 4.3137C11.8325 4.24293 11.2714 4.20755 10.6749 4.20755C8.97639 4.20755 7.68732 4.83944 6.80774 6.10322C5.92814 7.3569 5.48835 9.25764 5.48835 11.8054C5.48835 16.6078 7.24753 19.009 10.7659 19.009C11.2411 19.009 11.7315 18.9686 12.237 18.8877C12.7425 18.8068 13.1671 18.7208 13.5109 18.6299C13.8546 18.5388 14.077 18.4832 14.1782 18.463V14.5503L11.8427 13.8224V11.2898L20.7903 11.123V13.8224L18.6823 14.5503V20.8743C18.6823 20.9148 18.288 21.117 17.4994 21.481C16.7107 21.8449 15.6896 22.1836 14.436 22.497C13.1924 22.8106 11.7921 22.9673 10.2351 22.9673C7.07059 22.9673 4.62391 22.032 2.89505 20.1615C1.16619 18.2811 0.301758 15.5513 0.301758 11.9723C0.301758 9.566 0.731445 7.48834 1.59082 5.73926C2.4502 3.99018 3.66343 2.65056 5.23053 1.72042C6.80774 0.790269 8.65286 0.325195 10.7659 0.325195C11.8882 0.325195 12.9801 0.436408 14.0416 0.658835C15.1032 0.871152 16.0283 1.10874 16.8169 1.37161C17.6055 1.62437 17.9998 1.76086 17.9998 1.78108L17.8482 7.36195H14.9515L14.1782 4.69284Z" fill="#0035CF"/>
<path d="M31.3612 5.51172C33.8583 5.51172 35.7844 6.23965 37.1391 7.69554C38.504 9.15142 39.1865 11.219 39.1865 13.8982C39.1865 15.7383 38.8427 17.3357 38.1553 18.6905C37.4778 20.0453 36.5174 21.0866 35.2739 21.8145C34.0303 22.5324 32.5694 22.8912 30.8911 22.8912C25.6135 22.8912 22.9746 20.0453 22.9746 14.3532C22.9746 12.5131 23.3184 10.9308 24.0059 9.60639C24.7035 8.28194 25.6842 7.2709 26.948 6.5733C28.2118 5.86558 29.6829 5.51172 31.3612 5.51172ZM31.1943 9.22724C30.0216 9.22724 29.1572 9.60639 28.6011 10.3647C28.0551 11.1229 27.7821 12.4019 27.7821 14.2016C27.7821 15.9202 28.0399 17.179 28.5556 17.9777C29.0813 18.7764 29.9103 19.1758 31.0427 19.1758C32.1851 19.1758 33.0243 18.7764 33.5602 17.9777C34.0959 17.179 34.3639 15.8697 34.3639 14.0499C34.3639 12.4322 34.1112 11.224 33.6056 10.4253C33.1001 9.6266 32.2963 9.22724 31.1943 9.22724Z" fill="#0035CF"/>
<path d="M52.2236 21.8825H45.9082V2.37451H52.4236C54.335 2.37451 55.9766 2.76505 57.3482 3.54614C58.7198 4.32087 59.7709 5.43533 60.5012 6.88955C61.2377 8.33741 61.606 10.0742 61.606 12.0999C61.606 14.1321 61.2346 15.8783 60.4916 17.3389C59.7549 18.7995 58.6882 19.9234 57.2911 20.7109C55.894 21.492 54.2049 21.8825 52.2236 21.8825ZM48.8516 19.3107H52.0617C53.5475 19.3107 54.7827 19.0312 55.767 18.4724C56.7513 17.9073 57.4879 17.0913 57.977 16.0244C58.4658 14.9512 58.7104 13.6431 58.7104 12.0999C58.7104 10.5695 58.4658 9.2709 57.977 8.20405C57.4943 7.13721 56.7736 6.32755 55.8147 5.77507C54.8557 5.22261 53.665 4.94637 52.2427 4.94637H48.8516V19.3107Z" fill="#0A1218"/>
<path d="M71.343 22.1779C69.9014 22.1779 68.6601 21.8699 67.6186 21.2539C66.5835 20.6316 65.7833 19.7584 65.2182 18.6344C64.6594 17.5041 64.3799 16.18 64.3799 14.6624C64.3799 13.1636 64.6594 11.8428 65.2182 10.6997C65.7833 9.5567 66.5708 8.66447 67.5805 8.0231C68.5965 7.38172 69.784 7.06104 71.1429 7.06104C71.9685 7.06104 72.7686 7.19757 73.5434 7.47063C74.3181 7.74369 75.0134 8.17233 75.6294 8.75655C76.2455 9.34078 76.7313 10.0996 77.0868 11.0331C77.4424 11.9603 77.6203 13.0874 77.6203 14.4146V15.4243H65.9897V13.2906H74.8293C74.8293 12.5413 74.6769 11.8777 74.3721 11.2998C74.0673 10.7156 73.6387 10.2552 73.0861 9.91866C72.54 9.58209 71.8987 9.41381 71.162 9.41381C70.362 9.41381 69.6634 9.61067 69.0664 10.0044C68.4758 10.3918 68.0187 10.8998 67.6948 11.5285C67.3772 12.1508 67.2185 12.8271 67.2185 13.5574V15.2243C67.2185 16.2022 67.3899 17.0341 67.7328 17.72C68.0821 18.4058 68.5679 18.9297 69.1903 19.2917C69.8126 19.6473 70.5397 19.8251 71.3716 19.8251C71.9114 19.8251 72.4035 19.7488 72.8481 19.5965C73.2925 19.4377 73.6768 19.2027 74.0006 18.8916C74.3245 18.5804 74.5721 18.1962 74.7435 17.739L77.4393 18.2248C77.2234 19.0187 76.836 19.7139 76.2771 20.3108C75.7247 20.9014 75.0294 21.3619 74.1911 21.6921C73.3593 22.016 72.4099 22.1779 71.343 22.1779Z" fill="#0A1218"/>
<path d="M83.6284 2.37451V21.8825H80.7803V2.37451H83.6284Z" fill="#0A1218"/>
<path d="M87.4596 21.8824V7.25135H90.3077V21.8824H87.4596ZM88.8979 4.99384C88.4027 4.99384 87.9772 4.82873 87.6216 4.4985C87.2723 4.16194 87.0977 3.76187 87.0977 3.29831C87.0977 2.82839 87.2723 2.42832 87.6216 2.09811C87.9772 1.76154 88.4027 1.59326 88.8979 1.59326C89.3933 1.59326 89.8156 1.76154 90.1649 2.09811C90.5205 2.42832 90.6982 2.82839 90.6982 3.29831C90.6982 3.76187 90.5205 4.16194 90.1649 4.4985C89.8156 4.82873 89.3933 4.99384 88.8979 4.99384Z" fill="#0A1218"/>
<path d="M106.656 7.25146L101.351 21.8825H98.3026L92.9873 7.25146H96.045L99.7504 18.5105H99.9028L103.599 7.25146H106.656Z" fill="#0A1218"/>
<path d="M115.141 22.1779C113.699 22.1779 112.458 21.8699 111.416 21.2539C110.381 20.6316 109.581 19.7584 109.016 18.6344C108.457 17.5041 108.178 16.18 108.178 14.6624C108.178 13.1636 108.457 11.8428 109.016 10.6997C109.581 9.5567 110.369 8.66447 111.378 8.0231C112.394 7.38172 113.582 7.06104 114.941 7.06104C115.766 7.06104 116.566 7.19757 117.341 7.47063C118.116 7.74369 118.811 8.17233 119.427 8.75655C120.043 9.34078 120.529 10.0996 120.885 11.0331C121.24 11.9603 121.418 13.0874 121.418 14.4146V15.4243H109.787V13.2906H118.627C118.627 12.5413 118.475 11.8777 118.17 11.2998C117.865 10.7156 117.436 10.2552 116.884 9.91866C116.338 9.58209 115.696 9.41381 114.96 9.41381C114.16 9.41381 113.461 9.61067 112.864 10.0044C112.274 10.3918 111.816 10.8998 111.493 11.5285C111.175 12.1508 111.016 12.8271 111.016 13.5574V15.2243C111.016 16.2022 111.188 17.0341 111.531 17.72C111.88 18.4058 112.366 18.9297 112.988 19.2917C113.61 19.6473 114.337 19.8251 115.169 19.8251C115.709 19.8251 116.201 19.7488 116.646 19.5965C117.09 19.4377 117.474 19.2027 117.798 18.8916C118.122 18.5804 118.37 18.1962 118.541 17.739L121.237 18.2248C121.021 19.0187 120.634 19.7139 120.075 20.3108C119.522 20.9014 118.827 21.3619 117.989 21.6921C117.157 22.016 116.208 22.1779 115.141 22.1779Z" fill="#0A1218"/>
<path d="M124.578 21.8823V7.2513H127.331V9.57551H127.483C127.75 8.78807 128.22 8.16892 128.893 7.71805C129.573 7.26083 130.341 7.03223 131.198 7.03223C131.376 7.03223 131.586 7.03858 131.827 7.05127C132.075 7.06398 132.268 7.07985 132.408 7.0989V9.82317C132.294 9.79142 132.091 9.75649 131.798 9.71839C131.506 9.67393 131.214 9.65171 130.922 9.65171C130.249 9.65171 129.649 9.79458 129.122 10.0804C128.601 10.3598 128.188 10.7503 127.883 11.252C127.579 11.7473 127.426 12.3125 127.426 12.9475V21.8823H124.578Z" fill="#0A1218"/>
</g>
<defs>
<clipPath id="clip0_6_12">
<rect width="132.706" height="24" fill="white"/>
</clipPath>
</defs>
</svg>
