<svg width="400" height="299" viewBox="0 0 400 299" fill="none" xmlns="http://www.w3.org/2000/svg">
<path d="M296.199 149.336C292.527 103.104 253.487 59.1998 209.895 38.1838C149.279 8.91981 90.9188 9.47181 71.2708 63.1998C52.2948 115.2 83.6868 137.992 149.983 166.24C213.423 193.264 300.679 205.704 296.199 149.336Z" fill="#2D93D0"/>
<path opacity="0.9" d="M296.199 149.336C292.527 103.104 253.487 59.1998 209.895 38.1838C149.279 8.91981 90.9188 9.47181 71.2708 63.1998C52.2948 115.2 83.6868 137.992 149.983 166.24C213.423 193.264 300.679 205.704 296.199 149.336Z" fill="white"/>
<path d="M200 298.049C285.666 298.049 355.112 293.994 355.112 288.993C355.112 283.991 285.666 279.937 200 279.937C114.334 279.937 44.8877 283.991 44.8877 288.993C44.8877 293.994 114.334 298.049 200 298.049Z" fill="#F5F5F5"/>
<path d="M120.744 42.3992C121.296 32.7272 141.744 33.6872 145.76 42.7112C149.776 51.7352 146.48 60.0312 157.624 65.4792C177.328 75.0792 179.472 87.8312 172.024 100.383C164.576 112.935 135.488 121.727 119.664 101.183C104.056 80.9032 127.784 76.3832 115.504 66.8392C104.8 58.4712 105.712 43.5672 120.744 42.3992Z" fill="#263238"/>
<path d="M112 88.967C111.736 89.287 111.592 89.447 111.408 89.655C111.224 89.863 111.048 90.0389 110.872 90.2309C110.512 90.5909 110.152 90.951 109.792 91.279C109.064 91.959 108.32 92.583 107.568 93.191C106.056 94.3748 104.472 95.4622 102.824 96.4469C101.2 97.4188 99.5261 98.3028 97.8078 99.0949C96.9438 99.4789 96.0878 99.895 95.2158 100.215L93.9038 100.719L93.2478 100.967C92.8652 101.112 92.472 101.227 92.0718 101.311C91.0803 101.528 90.0483 101.466 89.0896 101.133C88.131 100.8 87.2832 100.208 86.6398 99.4229C85.8067 98.3929 85.2063 97.1949 84.8798 95.9109C84.3722 93.9669 84.1035 91.9681 84.0798 89.9589C84.0276 86.2571 84.3411 82.5592 85.0158 78.9189L88.5998 79.215C88.7161 82.6571 89.0098 86.091 89.4798 89.503C89.687 91.047 90.0571 92.5648 90.5838 94.0309C90.7215 94.4781 90.9627 94.8865 91.2878 95.2229C91.3438 95.2229 91.2878 95.1509 91.0798 95.0469C90.941 94.9951 90.7956 94.9628 90.6478 94.951C90.6478 94.951 90.6478 94.9509 90.7438 94.8949L91.3118 94.615L92.4558 94.0709L94.6958 92.9189C96.1598 92.1189 97.6078 91.2789 98.9838 90.3589C100.36 89.4389 101.704 88.4949 102.984 87.4709C103.616 86.9669 104.232 86.4469 104.808 85.8709C105.104 85.6069 105.376 85.3349 105.648 85.0709L106.04 84.687L106.328 84.375L112 88.967Z" fill="#FFC3BD"/>
<path d="M112.16 77.7668C109.224 77.0468 101.76 86.7108 101.76 86.7108L106.296 95.3428C106.296 95.3428 118.832 88.2628 118.36 84.3668C117.864 80.3028 116.44 78.8148 112.16 77.7668Z" fill="#2D93D0"/>
<path opacity="0.2" d="M112.16 77.7668C109.224 77.0468 101.76 86.7108 101.76 86.7108L106.296 95.3428C106.296 95.3428 118.832 88.2628 118.36 84.3668C117.864 80.3028 116.44 78.8148 112.16 77.7668Z" fill="black"/>
<path opacity="0.2" d="M110.217 81.1113L110.937 92.4153C108.441 94.1193 106.289 95.3433 106.289 95.3433L105.345 93.5353L110.217 81.1113Z" fill="black"/>
<path d="M88.0644 81.5993L91.3684 74.2393L84.3444 75.9113C84.3444 75.9113 83.1284 80.3113 85.2724 82.3113L88.0644 81.5993Z" fill="#FFC3BD"/>
<path d="M90.9607 68.9756L84.9287 69.4796L84.3447 75.9196L91.3687 74.2476L90.9607 68.9756Z" fill="#FFC3BD"/>
<path d="M118.664 278.063L111.584 278.343L110.328 261.895L117.408 261.623L118.664 278.063Z" fill="#FFC3BD"/>
<path d="M181.712 217.592L177.096 222.984L163.112 214.04L167.728 208.64L181.712 217.592Z" fill="#FFC3BD"/>
<path d="M175.545 222.679L179.777 215.911C179.847 215.793 179.959 215.705 180.09 215.664C180.222 215.622 180.364 215.631 180.489 215.687L186.321 218.263C186.461 218.334 186.584 218.432 186.685 218.552C186.785 218.672 186.859 218.811 186.903 218.961C186.948 219.111 186.961 219.269 186.942 219.424C186.923 219.579 186.872 219.729 186.793 219.863C185.273 222.199 184.393 223.247 182.569 226.223C181.425 228.055 179.569 231.823 177.985 234.327C176.401 236.831 173.825 235.423 174.257 234.231C176.193 228.879 175.633 226.311 175.289 223.887C175.233 223.467 175.324 223.041 175.545 222.679Z" fill="#263238"/>
<path d="M111.352 277.927L119.032 275.775C119.164 275.734 119.307 275.743 119.432 275.801C119.558 275.859 119.658 275.961 119.712 276.087L122.288 281.919C122.346 282.071 122.371 282.233 122.362 282.396C122.352 282.558 122.308 282.716 122.232 282.86C122.156 283.004 122.051 283.13 121.923 283.23C121.794 283.33 121.646 283.401 121.488 283.439C118.8 284.143 117.488 284.351 114.088 285.295C112.008 285.879 105.936 288.615 102.96 288.855C99.9844 289.095 99.6004 286.159 100.816 285.799C104.732 284.642 108.096 282.108 110.288 278.663C110.543 278.298 110.921 278.037 111.352 277.927Z" fill="#263238"/>
<g opacity="0.2">
<path d="M110.328 261.904L110.976 270.384L118.056 270.104L117.408 261.624L110.328 261.904Z" fill="black"/>
<path d="M167.728 208.64L163.112 214.04L170.328 218.648L174.944 213.248L167.728 208.64Z" fill="black"/>
</g>
<path d="M108.456 80.7193C107.768 84.7193 107.112 94.8793 110.056 118.495L138.856 120.271C139.08 109.231 139.656 100.335 145.632 78.9993C145.781 78.4729 145.811 77.9198 145.718 77.3806C145.626 76.8414 145.414 76.3297 145.098 75.8831C144.781 75.4366 144.369 75.0665 143.892 74.8001C143.414 74.5336 142.882 74.3775 142.336 74.3433C140.144 74.2153 137.384 74.1273 134.568 74.2473C130.133 74.3441 125.709 74.745 121.328 75.4473C117.592 76.1193 113.504 77.1593 111.128 77.7913C110.448 77.9708 109.835 78.3424 109.361 78.8618C108.887 79.3811 108.573 80.026 108.456 80.7193Z" fill="#2D93D0"/>
<path opacity="0.2" d="M108.456 80.7193C107.768 84.7193 107.112 94.8793 110.056 118.495L138.856 120.271C139.08 109.231 139.656 100.335 145.632 78.9993C145.781 78.4729 145.811 77.9198 145.718 77.3806C145.626 76.8414 145.414 76.3297 145.098 75.8831C144.781 75.4366 144.369 75.0665 143.892 74.8001C143.414 74.5336 142.882 74.3775 142.336 74.3433C140.144 74.2153 137.384 74.1273 134.568 74.2473C130.133 74.3441 125.709 74.745 121.328 75.4473C117.592 76.1193 113.504 77.1593 111.128 77.7913C110.448 77.9708 109.835 78.3424 109.361 78.8618C108.887 79.3811 108.573 80.026 108.456 80.7193Z" fill="black"/>
<path d="M110.056 118.495C110.056 118.495 101.096 172.751 100.224 194.391C99.3201 216.903 109.448 268.103 109.448 268.103H119.048C119.048 268.103 115.544 219.223 117.76 197.199C120.16 173.199 131.144 119.791 131.144 119.791L110.056 118.495Z" fill="#263238"/>
<path d="M119.88 268.447H108.616L107.784 264.855L120.4 264.415L119.88 268.447Z" fill="#2D93D0"/>
<path opacity="0.2" d="M121.64 132.848C113.688 146.632 117.736 172.928 119.64 182.736C121.816 168.336 125.072 150.736 127.568 137.816C126.944 130.4 125.304 126.488 121.64 132.848Z" fill="black"/>
<path d="M117.665 118.959C117.665 118.959 121.665 183.951 126.625 192.943C134.521 207.199 168.001 218.887 168.001 218.887L174.289 211.527C174.289 211.527 153.345 194.111 142.289 184.215C139.657 166.239 148.961 137.871 138.905 120.271L117.665 118.959Z" fill="#263238"/>
<path d="M139.384 118.607L139.96 121.231C140.048 121.439 139.8 121.623 139.464 121.607L109.864 119.775C109.6 119.775 109.392 119.615 109.392 119.455L109.288 116.863C109.288 116.679 109.512 116.543 109.8 116.559L138.928 118.399C139.015 118.394 139.102 118.41 139.182 118.446C139.261 118.483 139.331 118.538 139.384 118.607Z" fill="#2D93D0"/>
<path d="M135.265 121.599L136.065 121.647C136.217 121.647 136.345 121.583 136.337 121.487L136.177 118.119C136.177 118.015 136.041 117.927 135.889 117.919L135.089 117.871C134.937 117.871 134.809 117.935 134.817 118.031L134.977 121.407C134.977 121.527 135.113 121.599 135.265 121.599Z" fill="#263238"/>
<path d="M112 120.191L112.8 120.239C112.96 120.239 113.08 120.175 113.08 120.079L112.92 116.703C112.92 116.607 112.784 116.519 112.624 116.511L111.824 116.463C111.664 116.463 111.544 116.527 111.552 116.623L111.704 119.991C111.728 120.095 111.856 120.183 112 120.191Z" fill="#263238"/>
<path d="M123.641 120.911L124.441 120.959C124.593 120.959 124.721 120.895 124.713 120.791L124.553 117.423C124.553 117.327 124.417 117.239 124.265 117.223L123.465 117.175C123.313 117.175 123.185 117.239 123.193 117.343L123.353 120.711C123.353 120.799 123.489 120.895 123.641 120.911Z" fill="#263238"/>
<path d="M175.048 210.695L167.24 219.831L163.544 218.351L172.24 207.191L175.048 210.695Z" fill="#2D93D0"/>
<path d="M112.041 102.439C111.151 102.634 110.352 103.121 109.772 103.823C109.192 104.525 108.864 105.401 108.841 106.311C108.754 106.128 108.649 105.954 108.529 105.791C108.382 105.569 108.211 105.365 108.017 105.183C107.823 104.995 107.611 104.826 107.385 104.679C107.161 104.534 106.922 104.413 106.673 104.319C106.415 104.217 106.147 104.144 105.873 104.103C105.609 104.051 105.341 104.027 105.073 104.031C104.804 104.042 104.536 104.074 104.273 104.127C103.747 104.24 103.249 104.457 102.809 104.767C102.588 104.916 102.385 105.087 102.201 105.279C102.017 105.475 101.851 105.686 101.705 105.911C101.557 106.137 101.433 106.379 101.337 106.631C101.242 106.891 101.17 107.159 101.121 107.431C101.077 107.695 101.059 107.963 101.065 108.231C101.063 108.769 101.178 109.301 101.401 109.791C101.509 110.037 101.64 110.273 101.793 110.495C101.941 110.713 102.113 110.914 102.305 111.095C102.497 111.285 102.709 111.454 102.937 111.599C103.16 111.744 103.399 111.865 103.649 111.959C103.907 112.057 104.175 112.129 104.449 112.175C104.647 112.205 104.848 112.224 105.049 112.231C104.239 112.63 103.585 113.286 103.189 114.097C102.793 114.907 102.678 115.827 102.861 116.71C103.044 117.594 103.515 118.391 104.201 118.978C104.886 119.564 105.747 119.907 106.649 119.951C105.844 120.36 105.197 121.025 104.809 121.84C104.422 122.656 104.315 123.577 104.506 124.459C104.697 125.342 105.175 126.137 105.865 126.719C106.555 127.301 107.418 127.639 108.321 127.679C107.515 128.091 106.869 128.76 106.486 129.581C106.102 130.401 106.004 131.325 106.204 132.208C106.405 133.091 106.895 133.881 107.595 134.455C108.296 135.028 109.168 135.352 110.073 135.375C109.42 135.703 108.867 136.2 108.473 136.815C108.185 137.268 107.989 137.774 107.897 138.303C107.847 138.567 107.825 138.835 107.833 139.103C107.829 139.654 107.943 140.2 108.169 140.703C108.276 140.947 108.407 141.181 108.561 141.399C108.712 141.619 108.886 141.823 109.081 142.007C109.272 142.197 109.481 142.368 109.705 142.519C110.62 143.098 111.726 143.293 112.785 143.063C113.06 143.01 113.328 142.927 113.585 142.815C113.827 142.708 114.06 142.579 114.281 142.431C114.499 142.277 114.703 142.103 114.889 141.911C115.077 141.719 115.243 141.507 115.385 141.279C115.532 141.053 115.656 140.811 115.753 140.559C115.851 140.3 115.924 140.032 115.969 139.759C116.006 139.558 116.027 139.355 116.033 139.151C116.434 139.965 117.097 140.622 117.914 141.018C118.731 141.413 119.657 141.525 120.545 141.335C121.433 141.145 122.233 140.664 122.816 139.968C123.4 139.273 123.735 138.402 123.769 137.495C124.174 138.307 124.839 138.961 125.658 139.353C126.477 139.744 127.403 139.852 128.289 139.658C129.176 139.465 129.973 138.981 130.554 138.283C131.135 137.585 131.467 136.714 131.497 135.807C131.905 136.617 132.57 137.268 133.389 137.658C134.208 138.048 135.133 138.155 136.019 137.962C136.905 137.768 137.701 137.286 138.283 136.59C138.865 135.894 139.199 135.025 139.233 134.119C139.641 134.929 140.306 135.58 141.125 135.97C141.944 136.36 142.869 136.467 143.755 136.274C144.641 136.08 145.437 135.598 146.019 134.902C146.601 134.206 146.935 133.337 146.969 132.431C147.373 133.247 148.038 133.904 148.86 134.297C149.681 134.69 150.61 134.796 151.499 134.599C152.388 134.402 153.185 133.913 153.764 133.209C154.342 132.506 154.667 131.629 154.689 130.719C154.775 130.902 154.88 131.076 155.001 131.239C155.147 131.461 155.319 131.665 155.513 131.847C155.707 132.037 155.918 132.209 156.145 132.359C156.369 132.502 156.608 132.623 156.857 132.719C157.115 132.817 157.383 132.889 157.657 132.935C157.92 132.984 158.188 133.005 158.457 132.999C158.726 132.998 158.994 132.969 159.257 132.911C159.778 132.785 160.274 132.568 160.721 132.271C160.938 132.115 161.141 131.941 161.329 131.751C161.512 131.555 161.678 131.343 161.825 131.119C161.973 130.894 162.094 130.652 162.185 130.399C162.283 130.153 162.358 129.899 162.409 129.639C162.454 129.375 162.475 129.107 162.473 128.839C162.462 128.289 162.348 127.747 162.137 127.239C162.025 126.995 161.891 126.762 161.737 126.543C161.588 126.323 161.416 126.119 161.225 125.935C161.028 125.75 160.817 125.581 160.593 125.431C160.368 125.287 160.129 125.167 159.881 125.071C159.622 124.973 159.354 124.9 159.081 124.855C158.885 124.824 158.687 124.806 158.489 124.799C159.298 124.4 159.952 123.744 160.348 122.933C160.744 122.122 160.86 121.203 160.677 120.32C160.493 119.436 160.022 118.638 159.336 118.052C158.651 117.465 157.79 117.123 156.889 117.079C157.69 116.667 158.333 116.002 158.718 115.188C159.102 114.373 159.207 113.454 159.015 112.573C158.824 111.693 158.347 110.9 157.658 110.319C156.97 109.738 156.109 109.4 155.209 109.359C156.012 108.945 156.655 108.275 157.036 107.456C157.418 106.637 157.517 105.714 157.317 104.832C157.118 103.951 156.631 103.16 155.934 102.585C155.237 102.01 154.368 101.683 153.465 101.655C153.644 101.567 153.818 101.468 153.985 101.359C154.422 101.049 154.799 100.661 155.097 100.215C155.24 99.9902 155.361 99.7516 155.457 99.5029C155.558 99.2449 155.63 98.9767 155.673 98.7029C155.72 98.4389 155.744 98.1712 155.745 97.9029C155.737 97.6339 155.705 97.3661 155.649 97.1029C155.415 96.0455 154.772 95.1237 153.861 94.539C152.949 93.9543 151.843 93.7544 150.785 93.9829C150.524 94.0425 150.27 94.1255 150.025 94.2309C149.777 94.3378 149.542 94.4691 149.321 94.6229C149.102 94.7736 148.898 94.945 148.713 95.1349C148.532 95.3329 148.366 95.5442 148.217 95.7669C148.071 95.9934 147.951 96.2348 147.857 96.4869C147.755 96.7445 147.682 97.0129 147.641 97.2869C147.603 97.4875 147.581 97.6908 147.577 97.8949C147.18 97.0796 146.522 96.4198 145.709 96.0197C144.895 95.6196 143.971 95.502 143.083 95.6855C142.195 95.8689 141.393 96.343 140.805 97.0329C140.216 97.7228 139.874 98.589 139.833 99.4949C139.422 98.6891 138.757 98.0419 137.94 97.6547C137.123 97.2675 136.2 97.1622 135.317 97.3551C134.433 97.5481 133.639 98.0285 133.058 98.7211C132.477 99.4137 132.141 100.279 132.105 101.183C131.697 100.373 131.031 99.7218 130.212 99.3318C129.393 98.9417 128.468 98.8349 127.582 99.0283C126.696 99.2216 125.9 99.704 125.318 100.4C124.736 101.095 124.402 101.965 124.369 102.871C123.958 102.065 123.293 101.418 122.476 101.031C121.659 100.644 120.736 100.538 119.853 100.731C118.969 100.924 118.175 101.404 117.594 102.097C117.013 102.79 116.677 103.655 116.641 104.559C116.224 103.74 115.543 103.085 114.708 102.701C113.874 102.316 112.934 102.224 112.041 102.439Z" fill="#2D93D0"/>
<path opacity="0.7" d="M112.041 102.439C111.151 102.634 110.352 103.121 109.772 103.823C109.192 104.525 108.864 105.401 108.841 106.311C108.754 106.128 108.649 105.954 108.529 105.791C108.382 105.569 108.211 105.365 108.017 105.183C107.823 104.995 107.611 104.826 107.385 104.679C107.161 104.534 106.922 104.413 106.673 104.319C106.415 104.217 106.147 104.144 105.873 104.103C105.609 104.051 105.341 104.027 105.073 104.031C104.804 104.042 104.536 104.074 104.273 104.127C103.747 104.24 103.249 104.457 102.809 104.767C102.588 104.916 102.385 105.087 102.201 105.279C102.017 105.475 101.851 105.686 101.705 105.911C101.557 106.137 101.433 106.379 101.337 106.631C101.242 106.891 101.17 107.159 101.121 107.431C101.077 107.695 101.059 107.963 101.065 108.231C101.063 108.769 101.178 109.301 101.401 109.791C101.509 110.037 101.64 110.273 101.793 110.495C101.941 110.713 102.113 110.914 102.305 111.095C102.497 111.285 102.709 111.454 102.937 111.599C103.16 111.744 103.399 111.865 103.649 111.959C103.907 112.057 104.175 112.129 104.449 112.175C104.647 112.205 104.848 112.224 105.049 112.231C104.239 112.63 103.585 113.286 103.189 114.097C102.793 114.907 102.678 115.827 102.861 116.71C103.044 117.594 103.515 118.391 104.201 118.978C104.886 119.564 105.747 119.907 106.649 119.951C105.844 120.36 105.197 121.025 104.809 121.84C104.422 122.656 104.315 123.577 104.506 124.459C104.697 125.342 105.175 126.137 105.865 126.719C106.555 127.301 107.418 127.639 108.321 127.679C107.515 128.091 106.869 128.76 106.486 129.581C106.102 130.401 106.004 131.325 106.204 132.208C106.405 133.091 106.895 133.881 107.595 134.455C108.296 135.028 109.168 135.352 110.073 135.375C109.42 135.703 108.867 136.2 108.473 136.815C108.185 137.268 107.989 137.774 107.897 138.303C107.847 138.567 107.825 138.835 107.833 139.103C107.829 139.654 107.943 140.2 108.169 140.703C108.276 140.947 108.407 141.181 108.561 141.399C108.712 141.619 108.886 141.823 109.081 142.007C109.272 142.197 109.481 142.368 109.705 142.519C110.62 143.098 111.726 143.293 112.785 143.063C113.06 143.01 113.328 142.927 113.585 142.815C113.827 142.708 114.06 142.579 114.281 142.431C114.499 142.277 114.703 142.103 114.889 141.911C115.077 141.719 115.243 141.507 115.385 141.279C115.532 141.053 115.656 140.811 115.753 140.559C115.851 140.3 115.924 140.032 115.969 139.759C116.006 139.558 116.027 139.355 116.033 139.151C116.434 139.965 117.097 140.622 117.914 141.018C118.731 141.413 119.657 141.525 120.545 141.335C121.433 141.145 122.233 140.664 122.816 139.968C123.4 139.273 123.735 138.402 123.769 137.495C124.174 138.307 124.839 138.961 125.658 139.353C126.477 139.744 127.403 139.852 128.289 139.658C129.176 139.465 129.973 138.981 130.554 138.283C131.135 137.585 131.467 136.714 131.497 135.807C131.905 136.617 132.57 137.268 133.389 137.658C134.208 138.048 135.133 138.155 136.019 137.962C136.905 137.768 137.701 137.286 138.283 136.59C138.865 135.894 139.199 135.025 139.233 134.119C139.641 134.929 140.306 135.58 141.125 135.97C141.944 136.36 142.869 136.467 143.755 136.274C144.641 136.08 145.437 135.598 146.019 134.902C146.601 134.206 146.935 133.337 146.969 132.431C147.373 133.247 148.038 133.904 148.86 134.297C149.681 134.69 150.61 134.796 151.499 134.599C152.388 134.402 153.185 133.913 153.764 133.209C154.342 132.506 154.667 131.629 154.689 130.719C154.775 130.902 154.88 131.076 155.001 131.239C155.147 131.461 155.319 131.665 155.513 131.847C155.707 132.037 155.918 132.209 156.145 132.359C156.369 132.502 156.608 132.623 156.857 132.719C157.115 132.817 157.383 132.889 157.657 132.935C157.92 132.984 158.188 133.005 158.457 132.999C158.726 132.998 158.994 132.969 159.257 132.911C159.778 132.785 160.274 132.568 160.721 132.271C160.938 132.115 161.141 131.941 161.329 131.751C161.512 131.555 161.678 131.343 161.825 131.119C161.973 130.894 162.094 130.652 162.185 130.399C162.283 130.153 162.358 129.899 162.409 129.639C162.454 129.375 162.475 129.107 162.473 128.839C162.462 128.289 162.348 127.747 162.137 127.239C162.025 126.995 161.891 126.762 161.737 126.543C161.588 126.323 161.416 126.119 161.225 125.935C161.028 125.75 160.817 125.581 160.593 125.431C160.368 125.287 160.129 125.167 159.881 125.071C159.622 124.973 159.354 124.9 159.081 124.855C158.885 124.824 158.687 124.806 158.489 124.799C159.298 124.4 159.952 123.744 160.348 122.933C160.744 122.122 160.86 121.203 160.677 120.32C160.493 119.436 160.022 118.638 159.336 118.052C158.651 117.465 157.79 117.123 156.889 117.079C157.69 116.667 158.333 116.002 158.718 115.188C159.102 114.373 159.207 113.454 159.015 112.573C158.824 111.693 158.347 110.9 157.658 110.319C156.97 109.738 156.109 109.4 155.209 109.359C156.012 108.945 156.655 108.275 157.036 107.456C157.418 106.637 157.517 105.714 157.317 104.832C157.118 103.951 156.631 103.16 155.934 102.585C155.237 102.01 154.368 101.683 153.465 101.655C153.644 101.567 153.818 101.468 153.985 101.359C154.422 101.049 154.799 100.661 155.097 100.215C155.24 99.9902 155.361 99.7516 155.457 99.5029C155.558 99.2449 155.63 98.9767 155.673 98.7029C155.72 98.4389 155.744 98.1712 155.745 97.9029C155.737 97.6339 155.705 97.3661 155.649 97.1029C155.415 96.0455 154.772 95.1237 153.861 94.539C152.949 93.9543 151.843 93.7544 150.785 93.9829C150.524 94.0425 150.27 94.1255 150.025 94.2309C149.777 94.3378 149.542 94.4691 149.321 94.6229C149.102 94.7736 148.898 94.945 148.713 95.1349C148.532 95.3329 148.366 95.5442 148.217 95.7669C148.071 95.9934 147.951 96.2348 147.857 96.4869C147.755 96.7445 147.682 97.0129 147.641 97.2869C147.603 97.4875 147.581 97.6908 147.577 97.8949C147.18 97.0796 146.522 96.4198 145.709 96.0197C144.895 95.6196 143.971 95.502 143.083 95.6855C142.195 95.8689 141.393 96.343 140.805 97.0329C140.216 97.7228 139.874 98.589 139.833 99.4949C139.422 98.6891 138.757 98.0419 137.94 97.6547C137.123 97.2675 136.2 97.1622 135.317 97.3551C134.433 97.5481 133.639 98.0285 133.058 98.7211C132.477 99.4137 132.141 100.279 132.105 101.183C131.697 100.373 131.031 99.7218 130.212 99.3318C129.393 98.9417 128.468 98.8349 127.582 99.0283C126.696 99.2216 125.9 99.704 125.318 100.4C124.736 101.095 124.402 101.965 124.369 102.871C123.958 102.065 123.293 101.418 122.476 101.031C121.659 100.644 120.736 100.538 119.853 100.731C118.969 100.924 118.175 101.404 117.594 102.097C117.013 102.79 116.677 103.655 116.641 104.559C116.224 103.74 115.543 103.085 114.708 102.701C113.874 102.316 112.934 102.224 112.041 102.439Z" fill="white"/>
<path d="M148.861 100.274L108.568 109.059C107.765 109.234 107.256 110.027 107.431 110.83L112.832 135.6C113.007 136.403 113.8 136.912 114.603 136.737L154.896 127.951C155.699 127.776 156.208 126.983 156.033 126.181L150.632 101.41C150.457 100.608 149.664 100.099 148.861 100.274Z" fill="white"/>
<path d="M145.6 81.2549C147 84.7749 148.216 88.2709 149.328 91.8549C150.44 95.4389 151.456 99.0549 152.272 102.751C152.376 103.215 152.472 103.687 152.568 104.151L152.704 104.847L152.776 105.199L152.832 105.535C152.861 105.68 152.879 105.827 152.888 105.975C152.95 106.762 152.809 107.553 152.48 108.271C152.118 109.031 151.55 109.674 150.84 110.127C150.362 110.426 149.838 110.645 149.288 110.775C148.899 110.866 148.503 110.925 148.104 110.951C146.935 111.006 145.763 110.915 144.616 110.679C143.629 110.488 142.652 110.248 141.688 109.959C138.034 108.833 134.491 107.374 131.104 105.599L132.384 102.239C135.896 103.039 139.488 103.895 142.912 104.431C143.768 104.567 144.608 104.663 145.408 104.719C146.079 104.791 146.757 104.777 147.424 104.679C147.624 104.679 147.728 104.511 147.312 104.727C146.988 104.929 146.73 105.221 146.568 105.567C146.428 105.862 146.357 106.185 146.36 106.511C146.36 106.575 146.36 106.575 146.36 106.607C146.36 106.639 146.36 106.695 146.36 106.607L146.272 106.287L146.096 105.639C145.976 105.215 145.872 104.783 145.736 104.359C144.752 100.927 143.632 97.4949 142.464 94.0629C141.296 90.6309 140.064 87.2069 138.816 83.8469L145.6 81.2549Z" fill="#FFC3BD"/>
<path d="M144.617 74.6794C147.441 75.7354 150.297 85.8794 150.297 85.8794L138.609 93.1834C138.609 93.1834 134.897 83.3914 136.337 79.7434C137.841 75.9354 141.385 73.4714 144.617 74.6794Z" fill="#2D93D0"/>
<path opacity="0.2" d="M144.617 74.6794C147.441 75.7354 150.297 85.8794 150.297 85.8794L138.609 93.1834C138.609 93.1834 134.897 83.3914 136.337 79.7434C137.841 75.9354 141.385 73.4714 144.617 74.6794Z" fill="black"/>
<path d="M174.4 226.319H174.32C174.162 226.358 173.996 226.356 173.838 226.314C173.68 226.272 173.535 226.191 173.416 226.079C173.333 226.02 173.268 225.938 173.228 225.843C173.189 225.749 173.176 225.645 173.192 225.543C173.312 224.647 175.632 223.551 175.896 223.431C175.923 223.413 175.956 223.402 175.988 223.402C176.021 223.402 176.054 223.413 176.08 223.431C176.105 223.452 176.123 223.48 176.132 223.512C176.141 223.543 176.139 223.577 176.128 223.607C175.792 224.535 175.2 226.007 174.4 226.319ZM175.672 223.919C174.752 224.375 173.584 225.119 173.52 225.591C173.516 225.637 173.524 225.682 173.544 225.723C173.564 225.764 173.594 225.799 173.632 225.823C173.709 225.9 173.803 225.955 173.907 225.984C174.01 226.014 174.12 226.016 174.224 225.991C174.656 225.895 175.2 225.127 175.632 223.951L175.672 223.919Z" fill="#2D93D0"/>
<path d="M175.769 223.871C174.969 224.183 173.281 224.359 172.745 223.871C172.649 223.778 172.588 223.656 172.571 223.524C172.553 223.392 172.581 223.257 172.649 223.143C172.701 223.025 172.78 222.921 172.878 222.838C172.977 222.755 173.092 222.695 173.217 222.663C174.209 222.367 175.945 223.463 176.017 223.463C176.043 223.479 176.064 223.501 176.078 223.528C176.092 223.555 176.099 223.585 176.097 223.615C176.096 223.645 176.088 223.674 176.072 223.699C176.057 223.724 176.035 223.745 176.009 223.759L175.769 223.871ZM173.265 222.983C173.197 223.008 173.134 223.046 173.08 223.096C173.027 223.145 172.983 223.205 172.953 223.271C172.865 223.471 172.953 223.559 172.953 223.615C173.313 223.951 174.721 223.879 175.537 223.615C174.937 223.287 173.881 222.815 173.289 222.983H173.265Z" fill="#2D93D0"/>
<path d="M109.121 279.839C108.551 280.055 107.924 280.07 107.345 279.879C107.207 279.813 107.089 279.714 106.998 279.591C106.907 279.469 106.848 279.326 106.825 279.175C106.807 279.083 106.812 278.989 106.84 278.899C106.868 278.81 106.918 278.729 106.985 278.663C107.689 277.975 110.809 278.599 111.161 278.663C111.194 278.668 111.225 278.685 111.248 278.709C111.271 278.734 111.285 278.766 111.289 278.799C111.296 278.834 111.291 278.871 111.275 278.902C111.259 278.934 111.233 278.96 111.201 278.975C110.535 279.327 109.839 279.616 109.121 279.839ZM107.521 278.767C107.413 278.789 107.314 278.838 107.233 278.911C107.205 278.936 107.185 278.968 107.175 279.003C107.165 279.039 107.166 279.076 107.177 279.111C107.19 279.21 107.227 279.305 107.284 279.387C107.341 279.469 107.416 279.536 107.505 279.583C108.025 279.839 109.169 279.583 110.617 278.911C109.595 278.686 108.543 278.637 107.505 278.767H107.521Z" fill="#2D93D0"/>
<path d="M111.201 278.999H111.137C110.217 278.855 108.185 277.839 108.097 277.023C108.097 276.831 108.145 276.567 108.577 276.399C108.731 276.332 108.897 276.297 109.065 276.297C109.233 276.297 109.399 276.332 109.553 276.399C110.617 276.879 111.289 278.671 111.313 278.751C111.329 278.775 111.337 278.803 111.337 278.831C111.337 278.86 111.329 278.887 111.313 278.911C111.303 278.934 111.287 278.954 111.268 278.969C111.248 278.984 111.225 278.995 111.201 278.999ZM108.801 276.687H108.705C108.417 276.799 108.425 276.927 108.433 276.967C108.489 277.447 109.905 278.303 110.881 278.567C110.597 277.81 110.085 277.158 109.417 276.703C109.22 276.623 109.001 276.617 108.801 276.687Z" fill="#2D93D0"/>
<path d="M134.568 73.9594C130.13 74.0555 125.704 74.4564 121.32 75.1594C119.72 75.4474 118.064 75.7994 116.52 76.1594C115.328 77.4314 113.256 83.8634 115.584 88.2154C117.12 85.6394 119.704 83.4154 121.424 83.1594C123.312 83.6714 125.176 86.5274 125.632 89.0474C128.72 88.4874 135.4 81.2634 139.232 75.4474L140.208 73.9434C138.4 73.8874 136.512 73.8794 134.568 73.9594Z" fill="#2D93D0"/>
<path d="M134.16 59.7031C133.064 63.9671 131.76 71.7031 134.56 74.2471C134.56 74.2471 131.92 78.5431 125.216 79.3191C117.84 80.1831 121.32 75.4471 121.32 75.4471C126.12 73.9031 126.232 70.4471 125.608 67.2631L134.16 59.7031Z" fill="#FFC3BD"/>
<path d="M121.321 75.4477C121.321 75.4477 118.369 78.5597 121.177 84.2477C127.113 81.4877 132.801 78.2157 134.561 74.2637L121.321 75.4477Z" fill="#FFC3BD"/>
<path opacity="0.2" d="M130.672 62.7832L125.608 67.2632C125.767 68.0106 125.856 68.7713 125.872 69.5352C127.704 69.1112 130.728 67.2872 131.04 65.4072C131.095 64.5167 130.97 63.6243 130.672 62.7832Z" fill="black"/>
<path d="M139.776 54.5514C137.264 61.1354 136.336 63.9754 131.872 66.3594C125.144 69.9514 117.608 65.4234 118.104 58.2234C118.552 51.7354 122.584 42.0554 129.992 41.4234C131.628 41.2743 133.275 41.5475 134.776 42.217C136.276 42.8865 137.579 43.9298 138.561 45.2471C139.543 46.5644 140.17 48.1116 140.383 49.7407C140.596 51.3698 140.387 53.0262 139.776 54.5514Z" fill="#FFC3BD"/>
<path d="M124.8 41.4077C127.808 40.7117 128.8 44.1437 123.536 45.3517C118.272 46.5597 122.352 41.9837 124.8 41.4077Z" fill="#263238"/>
<path d="M127.945 39.5915C123.649 41.1915 125.545 46.1275 130.417 47.5355C135.289 48.9435 133.665 57.2075 138.033 59.0235C142.401 60.8395 144.713 46.9435 140.945 43.0235C137.177 39.1035 130.833 38.5035 127.945 39.5915Z" fill="#263238"/>
<path d="M123.929 52.6309C123.052 53.7256 122.029 54.6947 120.889 55.5109C121.105 55.7962 121.381 56.0313 121.698 56.1997C122.014 56.3682 122.363 56.4662 122.721 56.4869L123.929 52.6309Z" fill="#ED847E"/>
<path d="M125.032 59.5595C124.761 59.5146 124.494 59.4505 124.232 59.3675C124.19 59.3546 124.154 59.3255 124.133 59.2865C124.112 59.2476 124.108 59.2019 124.12 59.1595C124.136 59.1177 124.167 59.0833 124.207 59.0627C124.247 59.0421 124.293 59.0367 124.336 59.0475C125.011 59.2753 125.729 59.3411 126.434 59.2396C127.138 59.1382 127.809 58.8723 128.392 58.4635C128.408 58.4475 128.426 58.4349 128.447 58.4262C128.468 58.4176 128.49 58.4131 128.512 58.4131C128.534 58.4131 128.557 58.4176 128.577 58.4262C128.598 58.4349 128.616 58.4475 128.632 58.4635C128.662 58.4961 128.679 58.539 128.679 58.5835C128.679 58.628 128.662 58.6709 128.632 58.7035C128.121 59.0822 127.539 59.3532 126.92 59.5004C126.301 59.6475 125.659 59.6676 125.032 59.5595Z" fill="#263238"/>
<path d="M139.937 60.5506C139.096 61.6237 137.865 62.3222 136.513 62.4946C134.721 62.7026 134.113 61.0306 134.833 59.4866C135.497 58.0946 137.233 56.2866 138.913 56.8146C139.279 56.932 139.61 57.139 139.877 57.4167C140.143 57.6944 140.335 58.0342 140.437 58.4052C140.539 58.7762 140.546 59.1667 140.459 59.5413C140.372 59.916 140.192 60.2629 139.937 60.5506Z" fill="#FFC3BD"/>
<path d="M132.288 52.7993C132.221 52.78 132.161 52.7405 132.117 52.6862C132.072 52.6318 132.046 52.5652 132.04 52.4953C131.944 50.9353 130.24 49.8713 130.224 49.8633C130.182 49.8429 130.144 49.8137 130.114 49.7778C130.083 49.7418 130.061 49.6999 130.048 49.6546C130.034 49.6094 130.031 49.5619 130.037 49.5152C130.044 49.4685 130.06 49.4237 130.085 49.3836C130.109 49.3436 130.142 49.3092 130.181 49.2827C130.22 49.2562 130.264 49.2382 130.311 49.2299C130.357 49.2216 130.405 49.2231 130.451 49.2344C130.496 49.2456 130.539 49.2664 130.576 49.2953C130.664 49.3433 132.592 50.5513 132.704 52.4473C132.709 52.4917 132.704 52.5365 132.691 52.579C132.677 52.6215 132.655 52.6608 132.626 52.6945C132.597 52.7282 132.561 52.7556 132.521 52.775C132.481 52.7944 132.437 52.8054 132.392 52.8073L132.288 52.7993Z" fill="#263238"/>
<path d="M128.608 53.5989C128.424 54.0949 128.008 54.3989 127.68 54.2869C127.352 54.1749 127.232 53.6629 127.416 53.1589C127.6 52.6549 128.016 52.3589 128.344 52.4709C128.672 52.5829 128.8 53.0869 128.608 53.5989Z" fill="#263238"/>
<path d="M122.401 51.4075C122.217 51.9035 121.801 52.2075 121.473 52.0955C121.145 51.9835 121.025 51.4715 121.217 50.9675C121.409 50.4635 121.817 50.1675 122.145 50.2795C122.473 50.3915 122.593 50.9035 122.401 51.4075Z" fill="#263238"/>
<path d="M122.281 50.3986L121.209 49.5986C121.209 49.5986 121.481 50.7346 122.281 50.3986Z" fill="#263238"/>
<path d="M128.48 52.5432L127.408 51.7432C127.408 51.7432 127.68 52.9192 128.48 52.5432Z" fill="#263238"/>
<path d="M120.984 47.1991C120.925 47.1994 120.868 47.1839 120.817 47.1544C120.766 47.1248 120.724 47.0823 120.696 47.0311C120.653 46.9536 120.642 46.8621 120.666 46.7767C120.69 46.6912 120.747 46.6188 120.824 46.5751C121.28 46.2969 121.797 46.1327 122.33 46.0965C122.864 46.0603 123.398 46.1531 123.888 46.3671C123.967 46.4074 124.028 46.4776 124.055 46.5624C124.083 46.6472 124.076 46.7395 124.036 46.8191C123.996 46.8986 123.925 46.9589 123.84 46.9867C123.756 47.0144 123.663 47.0074 123.584 46.9671C123.197 46.8071 122.778 46.7412 122.361 46.7745C121.944 46.8079 121.54 46.9397 121.184 47.1591C121.125 47.1978 121.053 47.2122 120.984 47.1991Z" fill="#263238"/>
<path d="M133.32 102.575L128.48 96.6152L127.128 103.711C127.128 103.711 130.64 106.615 133.368 105.503L133.32 102.575Z" fill="#FFC3BD"/>
<path d="M124.185 95.6309L121.849 101.279L127.129 103.711L128.481 96.6149L124.185 95.6309Z" fill="#FFC3BD"/>
<path d="M327.957 147.482L327.2 147.555L328.184 157.795L328.941 157.723L327.957 147.482Z" fill="#2D93D0"/>
<path d="M329.299 161.288L328.543 161.36L328.94 165.493L329.697 165.421L329.299 161.288Z" fill="#2D93D0"/>
<path d="M146.683 249.986L333.423 232.038L322.738 120.87L135.999 138.818L146.683 249.986Z" fill="#2D93D0"/>
<path opacity="0.1" d="M146.683 249.986L333.423 232.038L322.738 120.87L135.999 138.818L146.683 249.986Z" fill="black"/>
<path opacity="0.1" d="M235.199 190.48L135.999 138.816L322.735 120.864L235.199 190.48Z" fill="#263238"/>
<path d="M212.599 77.9045L135.999 138.817L322.735 120.865L235.935 75.6645C232.245 73.742 228.077 72.9304 223.935 73.328C219.794 73.7255 215.856 75.3152 212.599 77.9045Z" fill="#2D93D0"/>
<path opacity="0.2" d="M315.8 121.536L233.328 78.5843C230.545 77.1334 227.401 76.5206 224.278 76.8202C221.154 77.1198 218.184 78.319 215.728 80.2723L142.928 138.144L315.8 121.536Z" fill="#263238"/>
<path d="M281.311 120.168L306.583 126.92L307.191 133.224L235.199 190.48L153.615 147.992L152.399 135.384L281.311 120.168Z" fill="white"/>
<path d="M281.312 120.168L286.088 133.4L306.584 126.92" fill="#E0E0E0"/>
<path d="M281.312 120.168L283.768 131.08L306.584 126.92" fill="#F0F0F0"/>
<path d="M250.119 178.592L333.423 232.04L146.688 249.984L218.28 181.648C222.477 177.645 227.897 175.167 233.671 174.613C239.445 174.058 245.238 175.46 250.119 178.592Z" fill="#2D93D0"/>
</svg>
