<svg width="155" height="68" viewBox="0 0 155 68" fill="none" xmlns="http://www.w3.org/2000/svg">
<path opacity="0.81" fill-rule="evenodd" clip-rule="evenodd" d="M57.6419 0.403809H74.1119C71.9719 2.79881 69.7294 5.12381 67.3894 7.37882C70.7819 10.7988 74.1969 14.1863 77.6419 17.5463C81.0869 14.1863 84.5044 10.7988 87.8944 7.37882C85.5544 5.12381 83.3144 2.79881 81.1719 0.403809H97.6419C97.9269 0.691309 98.1519 1.02631 98.3144 1.41131C93.4969 1.55131 88.6794 1.63381 83.8594 1.66381C85.4569 3.29131 87.0819 4.88631 88.7344 6.45382C89.4319 5.84131 90.1044 5.19631 90.7519 4.52131C90.8644 4.40881 90.9744 4.40881 91.0869 4.52131C95.6319 9.01132 100.114 13.5488 104.532 18.1363C100.114 22.7238 95.6319 27.2613 91.0869 31.7513C90.9744 31.8638 90.8644 31.8638 90.7519 31.7513C90.1044 31.0763 89.4319 30.4313 88.7344 29.8188C87.0844 31.3863 85.4594 32.9813 83.8594 34.6088C88.6769 34.6363 93.4969 34.7213 98.3144 34.8613C98.1119 35.1838 97.8869 35.4939 97.6419 35.7864C92.1519 35.9263 86.6594 35.8988 81.1719 35.7013C83.3819 33.4063 85.6244 31.1388 87.8944 28.8938C84.5019 25.4738 81.0869 22.0863 77.6419 18.7263C74.1969 22.0863 70.7819 25.4738 67.3894 28.8938C69.6594 31.1388 71.9019 33.4063 74.1119 35.7013C68.6219 35.8988 63.1319 35.9239 57.6419 35.7864C57.3319 35.5038 57.0494 35.1938 56.8019 34.8613C61.6744 34.7213 66.5494 34.6388 71.4244 34.6088C69.8269 32.9813 68.2019 31.3863 66.5494 29.8188C65.8519 30.4313 65.1794 31.0763 64.5319 31.7513C64.4194 31.8638 64.3094 31.8638 64.1969 31.7513L50.8344 18.3888C50.7219 18.2213 50.7219 18.0538 50.8344 17.8838L64.1969 4.52131C64.3094 4.40881 64.4194 4.40881 64.5319 4.52131C65.1794 5.19631 65.8519 5.84131 66.5494 6.45382C68.1994 4.88631 69.8244 3.29131 71.4244 1.66381C66.5494 1.63631 61.6744 1.55131 56.8019 1.41131C57.0869 1.07381 57.3669 0.736309 57.6419 0.403809ZM64.1969 6.11882C64.7694 6.43632 65.2719 6.85632 65.7094 7.37882C62.1169 10.9138 58.5894 14.4988 55.1219 18.1363C58.5894 21.7713 62.1194 25.3563 65.7094 28.8938C65.2869 29.3438 64.8394 29.7638 64.3644 30.1538C60.3044 26.1788 56.2719 22.1713 52.2644 18.1363C56.2769 14.1513 60.2544 10.1463 64.1969 6.11882ZM90.7519 6.11882C94.9119 10.0263 99.0019 14.0313 103.022 18.1363C99.0145 22.1713 94.9794 26.1788 90.9219 30.1538C90.4469 29.7638 90.0019 29.3438 89.5769 28.8938C93.1694 25.3588 96.6969 21.7738 100.164 18.1363C96.6969 14.5013 93.1669 10.9163 89.5769 7.37882C90.0019 6.98132 90.3944 6.56132 90.7519 6.11882ZM66.3819 8.30382C69.8144 11.4813 73.1744 14.7588 76.4669 18.1363C73.1869 21.4438 69.8819 24.7213 66.5494 27.9688C63.2194 24.7213 59.9119 21.4438 56.6319 18.1363C59.9169 14.8788 63.1669 11.6013 66.3819 8.30382ZM88.5669 8.30382C91.9969 11.4813 95.3594 14.7588 98.6519 18.1363C95.3719 21.4438 92.0669 24.7213 88.7344 27.9688C85.4044 24.7213 82.0969 21.4438 78.8169 18.1363C82.1044 14.8788 85.3519 11.6013 88.5669 8.30382Z" fill="black"/>
<path opacity="0.93" fill-rule="evenodd" clip-rule="evenodd" d="M55.624 67.6338H53.2715C50.5015 67.5238 47.9815 66.6538 45.709 65.0288C46.1865 64.3738 46.719 63.7863 47.3065 63.2638C50.594 65.1888 54.094 65.7213 57.8115 64.8613C58.824 64.5213 59.4965 63.8488 59.829 62.8438C59.6265 62.0263 59.124 61.4663 58.3165 61.1638C55.4665 60.7713 52.6115 60.4363 49.744 60.1563C46.9565 59.7088 45.864 58.1113 46.4665 55.3663C47.044 54.0538 48.024 53.1838 49.409 52.7613C53.2065 51.7738 56.904 52.0513 60.5015 53.6013C60.924 53.8388 61.314 54.1213 61.679 54.4413C61.229 54.9463 60.784 55.4488 60.334 55.9538C60.2215 55.9813 60.1115 56.0088 59.999 56.0388C57.059 54.5963 53.9765 54.1763 50.754 54.7788C49.504 54.9613 48.9715 55.6613 49.1565 56.8788C49.4165 57.1938 49.724 57.4463 50.0815 57.6363C53.1065 58.0188 56.1315 58.4138 59.1565 58.8138C61.6915 59.4313 62.784 61.0263 62.434 63.6038C62.0365 65.2888 61.0015 66.3813 59.324 66.8813C58.0915 67.2513 56.859 67.5038 55.624 67.6338Z" fill="black"/>
<path opacity="0.94" fill-rule="evenodd" clip-rule="evenodd" d="M0.329102 67.6343V65.1142C4.27661 61.8792 8.19911 58.6017 12.0941 55.2817C8.22911 55.1967 4.36161 55.1692 0.496602 55.1967V52.8442H15.7916C15.8191 53.6317 15.7916 54.4167 15.7066 55.1967C11.8116 58.5292 7.91911 61.8642 4.02661 65.1967C8.11661 65.2817 12.2041 65.3093 16.2966 65.2818V67.6343H0.329102Z" fill="black"/>
<path opacity="0.93" fill-rule="evenodd" clip-rule="evenodd" d="M30.0796 52.8385C31.1871 52.786 32.2796 52.841 33.3571 53.006C35.9496 57.7985 38.4996 62.6135 41.0046 67.461C40.0521 67.6835 39.0996 67.6835 38.1471 67.461C37.6521 66.3835 37.0896 65.3485 36.4671 64.351C33.2746 64.2385 30.0796 64.2385 26.8871 64.351C26.3271 65.416 25.7671 66.481 25.2071 67.5435C24.2496 67.6835 23.2971 67.6535 22.3496 67.4585C24.9696 62.6085 27.5446 57.736 30.0796 52.8385ZM31.5921 55.361C32.8496 57.426 34.0246 59.5535 35.1221 61.7485C32.8271 61.946 30.5296 61.971 28.2321 61.8335C29.4171 59.706 30.5396 57.5485 31.5921 55.361Z" fill="black"/>
<path opacity="0.95" fill-rule="evenodd" clip-rule="evenodd" d="M68.5664 52.8413H71.0864V58.7238H82.6839V52.8413H85.2039V67.6313H82.6839V61.0788H71.0864V67.6338H68.5664V52.8413Z" fill="black"/>
<path opacity="0.93" fill-rule="evenodd" clip-rule="evenodd" d="M98.4839 52.839C99.5914 52.7865 100.684 52.8415 101.761 53.0065C104.354 57.799 106.904 62.614 109.409 67.4615C108.456 67.684 107.504 67.684 106.551 67.4615C106.056 66.384 105.496 65.349 104.871 64.3515C101.679 64.239 98.4839 64.239 95.2914 64.3515C94.7314 65.4165 94.1714 66.4815 93.6114 67.544C92.6539 67.684 91.7014 67.654 90.7539 67.459C93.3739 62.609 95.9514 57.7365 98.4839 52.839ZM99.9964 55.3615C101.254 57.4265 102.429 59.554 103.526 61.749C101.231 61.9465 98.9339 61.9715 96.6364 61.834C97.8239 59.7065 98.9439 57.549 99.9964 55.3615Z" fill="black"/>
<path opacity="0.95" fill-rule="evenodd" clip-rule="evenodd" d="M114.62 52.8311C118.15 52.8036 121.68 52.8311 125.208 52.9161C130.413 53.7561 132.683 56.8086 132.015 62.0761C130.925 65.4636 128.598 67.2836 125.04 67.5386C121.568 67.6236 118.093 67.6511 114.62 67.6236V52.8311ZM117.14 55.1836C119.773 55.1561 122.408 55.1836 125.04 55.2686C128.52 56.1486 129.893 58.3586 129.158 61.9086C128.453 63.7336 127.135 64.8261 125.208 65.1861C122.518 65.2711 119.83 65.2986 117.14 65.2711V55.1836Z" fill="black"/>
<path opacity="0.94" fill-rule="evenodd" clip-rule="evenodd" d="M154.956 52.5059V63.0934C154.466 64.9559 153.291 66.2159 151.426 66.8759C150.524 67.1859 149.626 67.4384 148.736 67.6334H144.534C142.981 67.4109 141.524 66.8784 140.164 66.0359C139.504 65.4909 138.971 64.8459 138.566 64.1034C138.321 60.2459 138.236 56.3809 138.314 52.5059H140.834C140.754 55.9909 140.839 59.4634 141.086 62.9259C141.386 63.6159 141.861 64.1484 142.514 64.5234C144.939 65.3959 147.404 65.5084 149.909 64.8584C150.761 64.5084 151.461 63.9784 152.009 63.2609C152.256 59.6859 152.339 56.1009 152.261 52.5034H154.956V52.5059Z" fill="black"/>
</svg>
